<svg xmlns="http://www.w3.org/2000/svg" xmlns:xlink="http://www.w3.org/1999/xlink" width="250" zoomAndPan="magnify" viewBox="0 0 187.5 37.5" height="50" preserveAspectRatio="xMidYMid meet" version="1.0"><defs><g/><clipPath id="18a78bb76f"><path d="M 51 12.640625 L 62.058594 12.640625 L 62.058594 24 L 51 24 Z M 51 12.640625 " clip-rule="nonzero"/></clipPath><clipPath id="be5744f5c2"><path d="M 46 17 L 58 17 L 58 29 L 46 29 Z M 46 17 " clip-rule="nonzero"/></clipPath><clipPath id="d9b06ae83e"><path d="M 56.378906 17.507812 L 46.609375 17.507812 C 46.613281 19.941406 48.585938 21.914062 51.019531 21.914062 L 52.816406 21.914062 L 52.816406 23.660156 C 52.820312 26.089844 54.792969 28.0625 57.226562 28.0625 L 57.226562 18.355469 C 57.226562 17.886719 56.847656 17.507812 56.378906 17.507812 Z M 56.378906 17.507812 " clip-rule="nonzero"/></clipPath><linearGradient x1="0.990597" gradientTransform="matrix(10.615443, 0, 0, 10.553318, 46.610781, 17.508735)" y1="-0.00906497" x2="0.00926429" gradientUnits="userSpaceOnUse" y2="1.00893" id="6e31c2857d"><stop stop-opacity="1" stop-color="rgb(0%, 32.199097%, 79.998779%)" offset="0"/><stop stop-opacity="1" stop-color="rgb(0%, 32.199097%, 79.998779%)" offset="0.0625"/><stop stop-opacity="1" stop-color="rgb(0%, 32.199097%, 79.998779%)" offset="0.078125"/><stop stop-opacity="1" stop-color="rgb(0.0823975%, 32.30896%, 80.110168%)" offset="0.0859375"/><stop stop-opacity="1" stop-color="rgb(0.343323%, 32.652283%, 80.461121%)" offset="0.0898438"/><stop stop-opacity="1" stop-color="rgb(0.521851%, 32.887268%, 80.700684%)" offset="0.09375"/><stop stop-opacity="1" stop-color="rgb(0.698853%, 33.120728%, 80.938721%)" offset="0.0976563"/><stop stop-opacity="1" stop-color="rgb(0.87738%, 33.354187%, 81.178284%)" offset="0.101563"/><stop stop-opacity="1" stop-color="rgb(1.054382%, 33.587646%, 81.416321%)" offset="0.105469"/><stop stop-opacity="1" stop-color="rgb(1.23291%, 33.822632%, 81.655884%)" offset="0.109375"/><stop stop-opacity="1" stop-color="rgb(1.411438%, 34.056091%, 81.893921%)" offset="0.113281"/><stop stop-opacity="1" stop-color="rgb(1.589966%, 34.291077%, 82.133484%)" offset="0.117188"/><stop stop-opacity="1" stop-color="rgb(1.766968%, 34.524536%, 82.371521%)" offset="0.121094"/><stop stop-opacity="1" stop-color="rgb(1.945496%, 34.759521%, 82.611084%)" offset="0.125"/><stop stop-opacity="1" stop-color="rgb(2.122498%, 34.992981%, 82.849121%)" offset="0.128906"/><stop stop-opacity="1" stop-color="rgb(2.301025%, 35.227966%, 83.088684%)" offset="0.132812"/><stop stop-opacity="1" stop-color="rgb(2.478027%, 35.461426%, 83.326721%)" offset="0.136719"/><stop stop-opacity="1" stop-color="rgb(2.656555%, 35.694885%, 83.566284%)" offset="0.140625"/><stop stop-opacity="1" stop-color="rgb(2.835083%, 35.928345%, 83.804321%)" offset="0.144531"/><stop stop-opacity="1" stop-color="rgb(3.013611%, 36.16333%, 84.043884%)" offset="0.148438"/><stop stop-opacity="1" stop-color="rgb(3.190613%, 36.39679%, 84.283447%)" offset="0.152344"/><stop stop-opacity="1" stop-color="rgb(3.369141%, 36.631775%, 84.52301%)" offset="0.15625"/><stop stop-opacity="1" stop-color="rgb(3.546143%, 36.865234%, 84.761047%)" offset="0.160156"/><stop stop-opacity="1" stop-color="rgb(3.72467%, 37.10022%, 85.00061%)" offset="0.164062"/><stop stop-opacity="1" stop-color="rgb(3.901672%, 37.333679%, 85.238647%)" offset="0.167969"/><stop stop-opacity="1" stop-color="rgb(4.0802%, 37.568665%, 85.47821%)" offset="0.171875"/><stop stop-opacity="1" stop-color="rgb(4.258728%, 37.802124%, 85.716248%)" offset="0.175781"/><stop stop-opacity="1" stop-color="rgb(4.437256%, 38.035583%, 85.955811%)" offset="0.179688"/><stop stop-opacity="1" stop-color="rgb(4.614258%, 38.269043%, 86.193848%)" offset="0.183594"/><stop stop-opacity="1" stop-color="rgb(4.792786%, 38.504028%, 86.433411%)" offset="0.1875"/><stop stop-opacity="1" stop-color="rgb(4.969788%, 38.737488%, 86.671448%)" offset="0.191406"/><stop stop-opacity="1" stop-color="rgb(5.148315%, 38.972473%, 86.911011%)" offset="0.195313"/><stop stop-opacity="1" stop-color="rgb(5.325317%, 39.205933%, 87.149048%)" offset="0.199219"/><stop stop-opacity="1" stop-color="rgb(5.503845%, 39.440918%, 87.388611%)" offset="0.203125"/><stop stop-opacity="1" stop-color="rgb(5.682373%, 39.674377%, 87.626648%)" offset="0.207031"/><stop stop-opacity="1" stop-color="rgb(5.860901%, 39.909363%, 87.866211%)" offset="0.210937"/><stop stop-opacity="1" stop-color="rgb(6.037903%, 40.142822%, 88.104248%)" offset="0.214844"/><stop stop-opacity="1" stop-color="rgb(6.216431%, 40.377808%, 88.343811%)" offset="0.21875"/><stop stop-opacity="1" stop-color="rgb(6.393433%, 40.611267%, 88.581848%)" offset="0.222656"/><stop stop-opacity="1" stop-color="rgb(6.57196%, 40.844727%, 88.821411%)" offset="0.226562"/><stop stop-opacity="1" stop-color="rgb(6.748962%, 41.078186%, 89.059448%)" offset="0.230469"/><stop stop-opacity="1" stop-color="rgb(6.92749%, 41.313171%, 89.299011%)" offset="0.234375"/><stop stop-opacity="1" stop-color="rgb(7.106018%, 41.546631%, 89.537048%)" offset="0.238281"/><stop stop-opacity="1" stop-color="rgb(7.284546%, 41.781616%, 89.776611%)" offset="0.242188"/><stop stop-opacity="1" stop-color="rgb(7.461548%, 42.015076%, 90.014648%)" offset="0.246094"/><stop stop-opacity="1" stop-color="rgb(7.640076%, 42.250061%, 90.254211%)" offset="0.25"/><stop stop-opacity="1" stop-color="rgb(7.817078%, 42.483521%, 90.493774%)" offset="0.253906"/><stop stop-opacity="1" stop-color="rgb(7.995605%, 42.718506%, 90.733337%)" offset="0.257812"/><stop stop-opacity="1" stop-color="rgb(8.172607%, 42.951965%, 90.971375%)" offset="0.261719"/><stop stop-opacity="1" stop-color="rgb(8.351135%, 43.185425%, 91.210938%)" offset="0.265625"/><stop stop-opacity="1" stop-color="rgb(8.528137%, 43.418884%, 91.448975%)" offset="0.269531"/><stop stop-opacity="1" stop-color="rgb(8.706665%, 43.65387%, 91.688538%)" offset="0.273438"/><stop stop-opacity="1" stop-color="rgb(8.885193%, 43.887329%, 91.926575%)" offset="0.277344"/><stop stop-opacity="1" stop-color="rgb(9.063721%, 44.122314%, 92.166138%)" offset="0.28125"/><stop stop-opacity="1" stop-color="rgb(9.240723%, 44.355774%, 92.404175%)" offset="0.285156"/><stop stop-opacity="1" stop-color="rgb(9.41925%, 44.590759%, 92.643738%)" offset="0.289062"/><stop stop-opacity="1" stop-color="rgb(9.596252%, 44.824219%, 92.881775%)" offset="0.292969"/><stop stop-opacity="1" stop-color="rgb(9.77478%, 45.059204%, 93.121338%)" offset="0.296875"/><stop stop-opacity="1" stop-color="rgb(9.951782%, 45.292664%, 93.359375%)" offset="0.300781"/><stop stop-opacity="1" stop-color="rgb(10.13031%, 45.527649%, 93.598938%)" offset="0.304688"/><stop stop-opacity="1" stop-color="rgb(10.308838%, 45.761108%, 93.836975%)" offset="0.308594"/><stop stop-opacity="1" stop-color="rgb(10.487366%, 45.994568%, 94.076538%)" offset="0.3125"/><stop stop-opacity="1" stop-color="rgb(10.664368%, 46.228027%, 94.314575%)" offset="0.316406"/><stop stop-opacity="1" stop-color="rgb(10.842896%, 46.463013%, 94.554138%)" offset="0.320313"/><stop stop-opacity="1" stop-color="rgb(11.019897%, 46.696472%, 94.792175%)" offset="0.324219"/><stop stop-opacity="1" stop-color="rgb(11.198425%, 46.931458%, 95.031738%)" offset="0.328125"/><stop stop-opacity="1" stop-color="rgb(11.375427%, 47.164917%, 95.269775%)" offset="0.332031"/><stop stop-opacity="1" stop-color="rgb(11.553955%, 47.399902%, 95.509338%)" offset="0.335938"/><stop stop-opacity="1" stop-color="rgb(11.732483%, 47.633362%, 95.747375%)" offset="0.339844"/><stop stop-opacity="1" stop-color="rgb(11.911011%, 47.868347%, 95.986938%)" offset="0.34375"/><stop stop-opacity="1" stop-color="rgb(12.088013%, 48.101807%, 96.224976%)" offset="0.347656"/><stop stop-opacity="1" stop-color="rgb(12.266541%, 48.335266%, 96.464539%)" offset="0.351563"/><stop stop-opacity="1" stop-color="rgb(12.443542%, 48.568726%, 96.702576%)" offset="0.355469"/><stop stop-opacity="1" stop-color="rgb(12.62207%, 48.803711%, 96.942139%)" offset="0.359375"/><stop stop-opacity="1" stop-color="rgb(12.799072%, 49.03717%, 97.181702%)" offset="0.363281"/><stop stop-opacity="1" stop-color="rgb(12.9776%, 49.272156%, 97.421265%)" offset="0.367188"/><stop stop-opacity="1" stop-color="rgb(13.156128%, 49.505615%, 97.659302%)" offset="0.371094"/><stop stop-opacity="1" stop-color="rgb(13.334656%, 49.740601%, 97.898865%)" offset="0.375"/><stop stop-opacity="1" stop-color="rgb(13.511658%, 49.97406%, 98.136902%)" offset="0.378906"/><stop stop-opacity="1" stop-color="rgb(13.690186%, 50.209045%, 98.376465%)" offset="0.382812"/><stop stop-opacity="1" stop-color="rgb(13.867188%, 50.442505%, 98.614502%)" offset="0.386719"/><stop stop-opacity="1" stop-color="rgb(14.045715%, 50.675964%, 98.854065%)" offset="0.390625"/><stop stop-opacity="1" stop-color="rgb(14.222717%, 50.909424%, 99.092102%)" offset="0.394531"/><stop stop-opacity="1" stop-color="rgb(14.401245%, 51.144409%, 99.331665%)" offset="0.398438"/><stop stop-opacity="1" stop-color="rgb(14.579773%, 51.377869%, 99.569702%)" offset="0.402344"/><stop stop-opacity="1" stop-color="rgb(14.758301%, 51.612854%, 99.809265%)" offset="0.40625"/><stop stop-opacity="1" stop-color="rgb(14.828491%, 51.705933%, 99.90387%)" offset="0.4375"/><stop stop-opacity="1" stop-color="rgb(14.898682%, 51.799011%, 100%)" offset="0.490831"/><stop stop-opacity="1" stop-color="rgb(14.898682%, 51.799011%, 100%)" offset="0.5"/><stop stop-opacity="1" stop-color="rgb(14.898682%, 51.799011%, 100%)" offset="0.509169"/><stop stop-opacity="1" stop-color="rgb(14.898682%, 51.799011%, 100%)" offset="1"/></linearGradient><clipPath id="78eafd25d6"><path d="M 41.773438 22 L 53 22 L 53 32.925781 L 41.773438 32.925781 Z M 41.773438 22 " clip-rule="nonzero"/></clipPath><clipPath id="7f0e2887e6"><path d="M 51.542969 22.371094 L 41.773438 22.371094 C 41.773438 24.808594 43.75 26.78125 46.183594 26.78125 L 47.988281 26.78125 L 47.988281 28.519531 C 47.992188 30.949219 49.960938 32.921875 52.390625 32.925781 L 52.390625 23.21875 C 52.390625 22.75 52.011719 22.371094 51.542969 22.371094 Z M 51.542969 22.371094 " clip-rule="nonzero"/></clipPath><linearGradient x1="1.00555" gradientTransform="matrix(10.615443, 0, 0, 10.552682, 41.774963, 22.372991)" y1="0.00567497" x2="-0.00537349" gradientUnits="userSpaceOnUse" y2="0.994355" id="2d600cb1fb"><stop stop-opacity="1" stop-color="rgb(0%, 32.199097%, 79.998779%)" offset="0"/><stop stop-opacity="1" stop-color="rgb(0%, 32.199097%, 79.998779%)" offset="0.0625"/><stop stop-opacity="1" stop-color="rgb(0%, 32.199097%, 79.998779%)" offset="0.078125"/><stop stop-opacity="1" stop-color="rgb(0.131226%, 32.371521%, 80.174255%)" offset="0.0859375"/><stop stop-opacity="1" stop-color="rgb(0.419617%, 32.752991%, 80.563354%)" offset="0.0898438"/><stop stop-opacity="1" stop-color="rgb(0.578308%, 32.962036%, 80.776978%)" offset="0.09375"/><stop stop-opacity="1" stop-color="rgb(0.737%, 33.169556%, 80.989075%)" offset="0.0976563"/><stop stop-opacity="1" stop-color="rgb(0.895691%, 33.378601%, 81.202698%)" offset="0.101563"/><stop stop-opacity="1" stop-color="rgb(1.054382%, 33.586121%, 81.414795%)" offset="0.105469"/><stop stop-opacity="1" stop-color="rgb(1.213074%, 33.795166%, 81.628418%)" offset="0.109375"/><stop stop-opacity="1" stop-color="rgb(1.371765%, 34.004211%, 81.840515%)" offset="0.113281"/><stop stop-opacity="1" stop-color="rgb(1.530457%, 34.213257%, 82.054138%)" offset="0.117188"/><stop stop-opacity="1" stop-color="rgb(1.687622%, 34.420776%, 82.266235%)" offset="0.121094"/><stop stop-opacity="1" stop-color="rgb(1.846313%, 34.629822%, 82.479858%)" offset="0.125"/><stop stop-opacity="1" stop-color="rgb(2.005005%, 34.837341%, 82.691956%)" offset="0.128906"/><stop stop-opacity="1" stop-color="rgb(2.163696%, 35.046387%, 82.905579%)" offset="0.132812"/><stop stop-opacity="1" stop-color="rgb(2.322388%, 35.255432%, 83.117676%)" offset="0.136719"/><stop stop-opacity="1" stop-color="rgb(2.481079%, 35.464478%, 83.331299%)" offset="0.140625"/><stop stop-opacity="1" stop-color="rgb(2.639771%, 35.671997%, 83.543396%)" offset="0.144531"/><stop stop-opacity="1" stop-color="rgb(2.798462%, 35.881042%, 83.755493%)" offset="0.148438"/><stop stop-opacity="1" stop-color="rgb(2.957153%, 36.088562%, 83.96759%)" offset="0.152344"/><stop stop-opacity="1" stop-color="rgb(3.115845%, 36.297607%, 84.181213%)" offset="0.15625"/><stop stop-opacity="1" stop-color="rgb(3.27301%, 36.506653%, 84.393311%)" offset="0.160156"/><stop stop-opacity="1" stop-color="rgb(3.431702%, 36.715698%, 84.606934%)" offset="0.164063"/><stop stop-opacity="1" stop-color="rgb(3.590393%, 36.923218%, 84.819031%)" offset="0.167969"/><stop stop-opacity="1" stop-color="rgb(3.749084%, 37.132263%, 85.032654%)" offset="0.171875"/><stop stop-opacity="1" stop-color="rgb(3.907776%, 37.339783%, 85.244751%)" offset="0.175781"/><stop stop-opacity="1" stop-color="rgb(4.066467%, 37.548828%, 85.458374%)" offset="0.179688"/><stop stop-opacity="1" stop-color="rgb(4.225159%, 37.756348%, 85.670471%)" offset="0.183594"/><stop stop-opacity="1" stop-color="rgb(4.38385%, 37.965393%, 85.884094%)" offset="0.1875"/><stop stop-opacity="1" stop-color="rgb(4.541016%, 38.174438%, 86.096191%)" offset="0.191406"/><stop stop-opacity="1" stop-color="rgb(4.699707%, 38.383484%, 86.309814%)" offset="0.195313"/><stop stop-opacity="1" stop-color="rgb(4.858398%, 38.591003%, 86.521912%)" offset="0.199219"/><stop stop-opacity="1" stop-color="rgb(5.01709%, 38.800049%, 86.735535%)" offset="0.203125"/><stop stop-opacity="1" stop-color="rgb(5.175781%, 39.007568%, 86.947632%)" offset="0.207031"/><stop stop-opacity="1" stop-color="rgb(5.334473%, 39.216614%, 87.159729%)" offset="0.210938"/><stop stop-opacity="1" stop-color="rgb(5.493164%, 39.425659%, 87.371826%)" offset="0.214844"/><stop stop-opacity="1" stop-color="rgb(5.651855%, 39.634705%, 87.585449%)" offset="0.21875"/><stop stop-opacity="1" stop-color="rgb(5.809021%, 39.842224%, 87.797546%)" offset="0.222656"/><stop stop-opacity="1" stop-color="rgb(5.967712%, 40.05127%, 88.011169%)" offset="0.226562"/><stop stop-opacity="1" stop-color="rgb(6.126404%, 40.258789%, 88.223267%)" offset="0.230469"/><stop stop-opacity="1" stop-color="rgb(6.285095%, 40.467834%, 88.43689%)" offset="0.234375"/><stop stop-opacity="1" stop-color="rgb(6.443787%, 40.67688%, 88.648987%)" offset="0.238281"/><stop stop-opacity="1" stop-color="rgb(6.602478%, 40.885925%, 88.86261%)" offset="0.242188"/><stop stop-opacity="1" stop-color="rgb(6.761169%, 41.093445%, 89.074707%)" offset="0.246094"/><stop stop-opacity="1" stop-color="rgb(6.919861%, 41.30249%, 89.28833%)" offset="0.25"/><stop stop-opacity="1" stop-color="rgb(7.077026%, 41.51001%, 89.500427%)" offset="0.253906"/><stop stop-opacity="1" stop-color="rgb(7.235718%, 41.719055%, 89.71405%)" offset="0.257813"/><stop stop-opacity="1" stop-color="rgb(7.394409%, 41.926575%, 89.926147%)" offset="0.261719"/><stop stop-opacity="1" stop-color="rgb(7.553101%, 42.13562%, 90.139771%)" offset="0.265625"/><stop stop-opacity="1" stop-color="rgb(7.711792%, 42.344666%, 90.351868%)" offset="0.269531"/><stop stop-opacity="1" stop-color="rgb(7.870483%, 42.553711%, 90.563965%)" offset="0.273438"/><stop stop-opacity="1" stop-color="rgb(8.029175%, 42.76123%, 90.776062%)" offset="0.277344"/><stop stop-opacity="1" stop-color="rgb(8.187866%, 42.970276%, 90.989685%)" offset="0.28125"/><stop stop-opacity="1" stop-color="rgb(8.345032%, 43.177795%, 91.201782%)" offset="0.285156"/><stop stop-opacity="1" stop-color="rgb(8.503723%, 43.386841%, 91.415405%)" offset="0.289063"/><stop stop-opacity="1" stop-color="rgb(8.662415%, 43.595886%, 91.627502%)" offset="0.292969"/><stop stop-opacity="1" stop-color="rgb(8.821106%, 43.804932%, 91.841125%)" offset="0.296875"/><stop stop-opacity="1" stop-color="rgb(8.979797%, 44.012451%, 92.053223%)" offset="0.300781"/><stop stop-opacity="1" stop-color="rgb(9.138489%, 44.221497%, 92.266846%)" offset="0.304688"/><stop stop-opacity="1" stop-color="rgb(9.29718%, 44.429016%, 92.478943%)" offset="0.308594"/><stop stop-opacity="1" stop-color="rgb(9.455872%, 44.638062%, 92.692566%)" offset="0.3125"/><stop stop-opacity="1" stop-color="rgb(9.614563%, 44.847107%, 92.904663%)" offset="0.316406"/><stop stop-opacity="1" stop-color="rgb(9.773254%, 45.056152%, 93.118286%)" offset="0.320313"/><stop stop-opacity="1" stop-color="rgb(9.93042%, 45.263672%, 93.330383%)" offset="0.324219"/><stop stop-opacity="1" stop-color="rgb(10.089111%, 45.472717%, 93.544006%)" offset="0.328125"/><stop stop-opacity="1" stop-color="rgb(10.247803%, 45.680237%, 93.756104%)" offset="0.332031"/><stop stop-opacity="1" stop-color="rgb(10.406494%, 45.889282%, 93.968201%)" offset="0.335938"/><stop stop-opacity="1" stop-color="rgb(10.565186%, 46.096802%, 94.180298%)" offset="0.339844"/><stop stop-opacity="1" stop-color="rgb(10.723877%, 46.305847%, 94.393921%)" offset="0.34375"/><stop stop-opacity="1" stop-color="rgb(10.882568%, 46.514893%, 94.606018%)" offset="0.347656"/><stop stop-opacity="1" stop-color="rgb(11.04126%, 46.723938%, 94.819641%)" offset="0.351563"/><stop stop-opacity="1" stop-color="rgb(11.198425%, 46.931458%, 95.031738%)" offset="0.355469"/><stop stop-opacity="1" stop-color="rgb(11.357117%, 47.140503%, 95.245361%)" offset="0.359375"/><stop stop-opacity="1" stop-color="rgb(11.515808%, 47.348022%, 95.457458%)" offset="0.363281"/><stop stop-opacity="1" stop-color="rgb(11.6745%, 47.557068%, 95.671082%)" offset="0.367188"/><stop stop-opacity="1" stop-color="rgb(11.833191%, 47.766113%, 95.883179%)" offset="0.371094"/><stop stop-opacity="1" stop-color="rgb(11.991882%, 47.975159%, 96.096802%)" offset="0.375"/><stop stop-opacity="1" stop-color="rgb(12.150574%, 48.182678%, 96.308899%)" offset="0.378906"/><stop stop-opacity="1" stop-color="rgb(12.309265%, 48.391724%, 96.522522%)" offset="0.382813"/><stop stop-opacity="1" stop-color="rgb(12.466431%, 48.599243%, 96.734619%)" offset="0.386719"/><stop stop-opacity="1" stop-color="rgb(12.625122%, 48.808289%, 96.948242%)" offset="0.390625"/><stop stop-opacity="1" stop-color="rgb(12.783813%, 49.017334%, 97.160339%)" offset="0.394531"/><stop stop-opacity="1" stop-color="rgb(12.942505%, 49.226379%, 97.372437%)" offset="0.398438"/><stop stop-opacity="1" stop-color="rgb(13.101196%, 49.433899%, 97.584534%)" offset="0.402344"/><stop stop-opacity="1" stop-color="rgb(13.259888%, 49.642944%, 97.798157%)" offset="0.40625"/><stop stop-opacity="1" stop-color="rgb(13.418579%, 49.850464%, 98.010254%)" offset="0.410156"/><stop stop-opacity="1" stop-color="rgb(13.577271%, 50.059509%, 98.223877%)" offset="0.414062"/><stop stop-opacity="1" stop-color="rgb(13.734436%, 50.267029%, 98.435974%)" offset="0.417969"/><stop stop-opacity="1" stop-color="rgb(13.893127%, 50.476074%, 98.649597%)" offset="0.421875"/><stop stop-opacity="1" stop-color="rgb(14.051819%, 50.68512%, 98.861694%)" offset="0.425781"/><stop stop-opacity="1" stop-color="rgb(14.21051%, 50.894165%, 99.075317%)" offset="0.429688"/><stop stop-opacity="1" stop-color="rgb(14.369202%, 51.101685%, 99.287415%)" offset="0.433594"/><stop stop-opacity="1" stop-color="rgb(14.527893%, 51.31073%, 99.501038%)" offset="0.4375"/><stop stop-opacity="1" stop-color="rgb(14.686584%, 51.51825%, 99.713135%)" offset="0.441406"/><stop stop-opacity="1" stop-color="rgb(14.845276%, 51.727295%, 99.926758%)" offset="0.445313"/><stop stop-opacity="1" stop-color="rgb(14.871216%, 51.76239%, 99.963379%)" offset="0.453125"/><stop stop-opacity="1" stop-color="rgb(14.898682%, 51.799011%, 100%)" offset="0.46875"/><stop stop-opacity="1" stop-color="rgb(14.898682%, 51.799011%, 100%)" offset="0.4944"/><stop stop-opacity="1" stop-color="rgb(14.898682%, 51.799011%, 100%)" offset="0.5"/><stop stop-opacity="1" stop-color="rgb(14.898682%, 51.799011%, 100%)" offset="0.5056"/><stop stop-opacity="1" stop-color="rgb(14.898682%, 51.799011%, 100%)" offset="1"/></linearGradient></defs><g fill="#292929" fill-opacity="1"><g transform="translate(-0.628895, 31.558192)"><g><path d="M 15.671875 0.359375 C 13.765625 0.359375 11.984375 0.00390625 10.328125 -0.703125 C 8.679688 -1.421875 7.222656 -2.410156 5.953125 -3.671875 C 4.691406 -4.941406 3.703125 -6.398438 2.984375 -8.046875 C 2.273438 -9.703125 1.921875 -11.484375 1.921875 -13.390625 C 1.921875 -15.296875 2.273438 -17.070312 2.984375 -18.71875 C 3.703125 -20.375 4.691406 -21.832031 5.953125 -23.09375 C 7.222656 -24.351562 8.679688 -25.34375 10.328125 -26.0625 C 11.984375 -26.78125 13.765625 -27.140625 15.671875 -27.140625 C 18.285156 -27.140625 20.65625 -26.472656 22.78125 -25.140625 C 24.90625 -23.816406 26.550781 -22.085938 27.71875 -19.953125 L 23.96875 -17.9375 C 23.195312 -19.425781 22.070312 -20.609375 20.59375 -21.484375 C 19.125 -22.367188 17.484375 -22.8125 15.671875 -22.8125 C 13.910156 -22.8125 12.316406 -22.394531 10.890625 -21.5625 C 9.460938 -20.726562 8.332031 -19.601562 7.5 -18.1875 C 6.664062 -16.769531 6.25 -15.171875 6.25 -13.390625 C 6.25 -11.597656 6.664062 -9.992188 7.5 -8.578125 C 8.332031 -7.171875 9.460938 -6.050781 10.890625 -5.21875 C 12.316406 -4.382812 13.910156 -3.96875 15.671875 -3.96875 C 17.484375 -3.96875 19.125 -4.414062 20.59375 -5.3125 C 22.070312 -6.207031 23.195312 -7.382812 23.96875 -8.84375 L 27.71875 -6.828125 C 26.550781 -4.679688 24.90625 -2.945312 22.78125 -1.625 C 20.65625 -0.300781 18.285156 0.359375 15.671875 0.359375 Z M 15.671875 0.359375 "/></g></g></g><g fill="#292929" fill-opacity="1"><g transform="translate(27.653371, 31.558192)"><g><path d="M 2.953125 0 L 2.953125 -31.78125 L 7.1875 -31.78125 L 7.1875 0 Z M 2.953125 0 "/></g></g></g><g fill="#292929" fill-opacity="1"><g transform="translate(37.065955, 31.558192)"><g/></g></g><g fill="#292929" fill-opacity="1"><g transform="translate(47.058219, 31.558192)"><g/></g></g><g fill="#292929" fill-opacity="1"><g transform="translate(57.050482, 31.558192)"><g/></g></g><g fill="#292929" fill-opacity="1"><g transform="translate(67.046218, 31.558192)"><g><path d="M 16.515625 -31.78125 L 20.75 -31.78125 L 20.75 0 L 16.515625 0 L 16.515625 -1.875 C 15.765625 -1.1875 14.898438 -0.640625 13.921875 -0.234375 C 12.941406 0.160156 11.882812 0.359375 10.75 0.359375 C 9.082031 0.359375 7.554688 -0.0546875 6.171875 -0.890625 C 4.796875 -1.722656 3.707031 -2.835938 2.90625 -4.234375 C 2.101562 -5.640625 1.703125 -7.203125 1.703125 -8.921875 C 1.703125 -10.648438 2.101562 -12.210938 2.90625 -13.609375 C 3.707031 -15.003906 4.796875 -16.117188 6.171875 -16.953125 C 7.554688 -17.785156 9.082031 -18.203125 10.75 -18.203125 C 11.882812 -18.203125 12.941406 -18 13.921875 -17.59375 C 14.898438 -17.195312 15.765625 -16.660156 16.515625 -15.984375 Z M 11.296875 -3.5625 C 12.273438 -3.5625 13.171875 -3.800781 13.984375 -4.28125 C 14.804688 -4.757812 15.453125 -5.40625 15.921875 -6.21875 C 16.398438 -7.039062 16.640625 -7.941406 16.640625 -8.921875 C 16.640625 -9.929688 16.398438 -10.835938 15.921875 -11.640625 C 15.453125 -12.453125 14.804688 -13.09375 13.984375 -13.5625 C 13.171875 -14.039062 12.273438 -14.28125 11.296875 -14.28125 C 10.304688 -14.28125 9.398438 -14.039062 8.578125 -13.5625 C 7.765625 -13.09375 7.117188 -12.453125 6.640625 -11.640625 C 6.171875 -10.835938 5.9375 -9.929688 5.9375 -8.921875 C 5.9375 -7.941406 6.171875 -7.039062 6.640625 -6.21875 C 7.117188 -5.40625 7.765625 -4.757812 8.578125 -4.28125 C 9.398438 -3.800781 10.304688 -3.5625 11.296875 -3.5625 Z M 11.296875 -3.5625 "/></g></g></g><g fill="#2684ff" fill-opacity="1"><g transform="translate(90.033177, 31.558192)"><g><path d="M 20.125 -26.78125 L 24.5 -26.78125 L 24.5 0 L 20.125 0 L 20.125 -11.375 L 7.3125 -11.375 L 7.3125 0 L 2.953125 0 L 2.953125 -26.78125 L 7.3125 -26.78125 L 7.3125 -15.4375 L 20.125 -15.4375 Z M 20.125 -26.78125 "/></g></g></g><g fill="#2684ff" fill-opacity="1"><g transform="translate(116.754099, 31.558192)"><g><path d="M 9.953125 0.359375 C 7.597656 0.359375 5.757812 -0.265625 4.4375 -1.515625 C 3.113281 -2.765625 2.453125 -4.460938 2.453125 -6.609375 L 2.453125 -17.84375 L 6.65625 -17.84375 L 6.65625 -7.140625 C 6.65625 -6.035156 6.96875 -5.160156 7.59375 -4.515625 C 8.21875 -3.878906 9.003906 -3.5625 9.953125 -3.5625 C 10.898438 -3.5625 11.6875 -3.878906 12.3125 -4.515625 C 12.9375 -5.160156 13.25 -6.035156 13.25 -7.140625 L 13.25 -17.84375 L 17.453125 -17.84375 L 17.453125 -6.609375 C 17.453125 -4.460938 16.789062 -2.765625 15.46875 -1.515625 C 14.144531 -0.265625 12.304688 0.359375 9.953125 0.359375 Z M 9.953125 0.359375 "/></g></g></g><g fill="#2684ff" fill-opacity="1"><g transform="translate(135.935961, 31.558192)"><g><path d="M 12.9375 -18.203125 C 14.632812 -18.203125 16.164062 -17.785156 17.53125 -16.953125 C 18.90625 -16.117188 19.992188 -15.003906 20.796875 -13.609375 C 21.597656 -12.210938 22 -10.648438 22 -8.921875 C 22 -7.203125 21.597656 -5.640625 20.796875 -4.234375 C 19.992188 -2.835938 18.90625 -1.722656 17.53125 -0.890625 C 16.164062 -0.0546875 14.632812 0.359375 12.9375 0.359375 C 11.8125 0.359375 10.765625 0.160156 9.796875 -0.234375 C 8.828125 -0.640625 7.957031 -1.1875 7.1875 -1.875 L 7.1875 0 L 2.953125 0 L 2.953125 -31.78125 L 7.1875 -31.78125 L 7.1875 -15.984375 C 7.957031 -16.660156 8.828125 -17.195312 9.796875 -17.59375 C 10.765625 -18 11.8125 -18.203125 12.9375 -18.203125 Z M 12.40625 -3.5625 C 13.414062 -3.5625 14.320312 -3.800781 15.125 -4.28125 C 15.925781 -4.757812 16.566406 -5.40625 17.046875 -6.21875 C 17.523438 -7.039062 17.765625 -7.941406 17.765625 -8.921875 C 17.765625 -9.929688 17.523438 -10.835938 17.046875 -11.640625 C 16.566406 -12.453125 15.925781 -13.09375 15.125 -13.5625 C 14.320312 -14.039062 13.414062 -14.28125 12.40625 -14.28125 C 11.425781 -14.28125 10.523438 -14.039062 9.703125 -13.5625 C 8.890625 -13.09375 8.242188 -12.453125 7.765625 -11.640625 C 7.285156 -10.835938 7.046875 -9.929688 7.046875 -8.921875 C 7.046875 -7.941406 7.285156 -7.039062 7.765625 -6.21875 C 8.242188 -5.40625 8.890625 -4.757812 9.703125 -4.28125 C 10.523438 -3.800781 11.425781 -3.5625 12.40625 -3.5625 Z M 12.40625 -3.5625 "/></g></g></g><g clip-path="url(#18a78bb76f)"><path fill="#2684ff" d="M 61.210938 12.640625 L 51.445312 12.640625 C 51.445312 13.8125 51.90625 14.933594 52.734375 15.757812 C 53.5625 16.585938 54.683594 17.050781 55.851562 17.050781 L 57.652344 17.050781 L 57.652344 18.789062 C 57.65625 21.222656 59.625 23.195312 62.058594 23.195312 L 62.058594 13.488281 C 62.058594 13.019531 61.679688 12.640625 61.210938 12.640625 Z M 61.210938 12.640625 " fill-opacity="1" fill-rule="nonzero"/></g><g clip-path="url(#be5744f5c2)"><g clip-path="url(#d9b06ae83e)"><path fill="url(#6e31c2857d)" d="M 46.609375 17.507812 L 46.609375 28.0625 L 57.226562 28.0625 L 57.226562 17.507812 Z M 46.609375 17.507812 " fill-rule="nonzero"/></g></g><g clip-path="url(#78eafd25d6)"><g clip-path="url(#7f0e2887e6)"><path fill="url(#2d600cb1fb)" d="M 41.773438 22.371094 L 41.773438 32.925781 L 52.390625 32.925781 L 52.390625 22.371094 Z M 41.773438 22.371094 " fill-rule="nonzero"/></g></g></svg>