<svg xmlns="http://www.w3.org/2000/svg" xmlns:xlink="http://www.w3.org/1999/xlink" width="250" zoomAndPan="magnify" viewBox="0 0 187.5 37.5" height="50" preserveAspectRatio="xMidYMid meet" version="1.0"><defs><g/><clipPath id="4281fc15dd"><path d="M 69 14.3125 L 78.855469 14.3125 L 78.855469 24 L 69 24 Z M 69 14.3125 " clip-rule="nonzero"/></clipPath><clipPath id="442310760a"><path d="M 65 18 L 75 18 L 75 28 L 65 28 Z M 65 18 " clip-rule="nonzero"/></clipPath><clipPath id="2dd22bcf88"><path d="M 74.089844 18.394531 L 65.894531 18.394531 C 65.894531 20.4375 67.550781 22.09375 69.589844 22.09375 L 71.101562 22.09375 L 71.101562 23.558594 C 71.105469 25.597656 72.761719 27.253906 74.800781 27.253906 L 74.800781 19.105469 C 74.800781 18.714844 74.484375 18.394531 74.089844 18.394531 Z M 74.089844 18.394531 " clip-rule="nonzero"/></clipPath><linearGradient x1="0.990597" gradientTransform="matrix(8.909584, 0, 0, 8.857443, 65.892988, 18.395811)" y1="-0.00906486" x2="0.00926427" gradientUnits="userSpaceOnUse" y2="1.00893" id="2c9fe16d7d"><stop stop-opacity="1" stop-color="rgb(0%, 32.199097%, 79.998779%)" offset="0"/><stop stop-opacity="1" stop-color="rgb(0%, 32.199097%, 79.998779%)" offset="0.0625"/><stop stop-opacity="1" stop-color="rgb(0%, 32.199097%, 79.998779%)" offset="0.078125"/><stop stop-opacity="1" stop-color="rgb(0.0823975%, 32.30896%, 80.110168%)" offset="0.0859375"/><stop stop-opacity="1" stop-color="rgb(0.343323%, 32.652283%, 80.461121%)" offset="0.0898438"/><stop stop-opacity="1" stop-color="rgb(0.521851%, 32.887268%, 80.700684%)" offset="0.09375"/><stop stop-opacity="1" stop-color="rgb(0.698853%, 33.120728%, 80.938721%)" offset="0.0976562"/><stop stop-opacity="1" stop-color="rgb(0.87738%, 33.354187%, 81.178284%)" offset="0.101562"/><stop stop-opacity="1" stop-color="rgb(1.054382%, 33.587646%, 81.416321%)" offset="0.105469"/><stop stop-opacity="1" stop-color="rgb(1.23291%, 33.822632%, 81.655884%)" offset="0.109375"/><stop stop-opacity="1" stop-color="rgb(1.411438%, 34.056091%, 81.893921%)" offset="0.113281"/><stop stop-opacity="1" stop-color="rgb(1.589966%, 34.291077%, 82.133484%)" offset="0.117188"/><stop stop-opacity="1" stop-color="rgb(1.766968%, 34.524536%, 82.371521%)" offset="0.121094"/><stop stop-opacity="1" stop-color="rgb(1.945496%, 34.759521%, 82.611084%)" offset="0.125"/><stop stop-opacity="1" stop-color="rgb(2.122498%, 34.992981%, 82.849121%)" offset="0.128906"/><stop stop-opacity="1" stop-color="rgb(2.301025%, 35.227966%, 83.088684%)" offset="0.132812"/><stop stop-opacity="1" stop-color="rgb(2.478027%, 35.461426%, 83.326721%)" offset="0.136719"/><stop stop-opacity="1" stop-color="rgb(2.656555%, 35.694885%, 83.566284%)" offset="0.140625"/><stop stop-opacity="1" stop-color="rgb(2.835083%, 35.928345%, 83.804321%)" offset="0.144531"/><stop stop-opacity="1" stop-color="rgb(3.013611%, 36.16333%, 84.043884%)" offset="0.148438"/><stop stop-opacity="1" stop-color="rgb(3.190613%, 36.39679%, 84.283447%)" offset="0.152344"/><stop stop-opacity="1" stop-color="rgb(3.369141%, 36.631775%, 84.52301%)" offset="0.15625"/><stop stop-opacity="1" stop-color="rgb(3.546143%, 36.865234%, 84.761047%)" offset="0.160156"/><stop stop-opacity="1" stop-color="rgb(3.72467%, 37.10022%, 85.00061%)" offset="0.164062"/><stop stop-opacity="1" stop-color="rgb(3.901672%, 37.333679%, 85.238647%)" offset="0.167969"/><stop stop-opacity="1" stop-color="rgb(4.0802%, 37.568665%, 85.47821%)" offset="0.171875"/><stop stop-opacity="1" stop-color="rgb(4.258728%, 37.802124%, 85.716248%)" offset="0.175781"/><stop stop-opacity="1" stop-color="rgb(4.437256%, 38.035583%, 85.955811%)" offset="0.179688"/><stop stop-opacity="1" stop-color="rgb(4.614258%, 38.269043%, 86.193848%)" offset="0.183594"/><stop stop-opacity="1" stop-color="rgb(4.792786%, 38.504028%, 86.433411%)" offset="0.1875"/><stop stop-opacity="1" stop-color="rgb(4.969788%, 38.737488%, 86.671448%)" offset="0.191406"/><stop stop-opacity="1" stop-color="rgb(5.148315%, 38.972473%, 86.911011%)" offset="0.195312"/><stop stop-opacity="1" stop-color="rgb(5.325317%, 39.205933%, 87.149048%)" offset="0.199219"/><stop stop-opacity="1" stop-color="rgb(5.503845%, 39.440918%, 87.388611%)" offset="0.203125"/><stop stop-opacity="1" stop-color="rgb(5.682373%, 39.674377%, 87.626648%)" offset="0.207031"/><stop stop-opacity="1" stop-color="rgb(5.860901%, 39.909363%, 87.866211%)" offset="0.210937"/><stop stop-opacity="1" stop-color="rgb(6.037903%, 40.142822%, 88.104248%)" offset="0.214844"/><stop stop-opacity="1" stop-color="rgb(6.216431%, 40.377808%, 88.343811%)" offset="0.21875"/><stop stop-opacity="1" stop-color="rgb(6.393433%, 40.611267%, 88.581848%)" offset="0.222656"/><stop stop-opacity="1" stop-color="rgb(6.57196%, 40.844727%, 88.821411%)" offset="0.226563"/><stop stop-opacity="1" stop-color="rgb(6.748962%, 41.078186%, 89.059448%)" offset="0.230469"/><stop stop-opacity="1" stop-color="rgb(6.92749%, 41.313171%, 89.299011%)" offset="0.234375"/><stop stop-opacity="1" stop-color="rgb(7.106018%, 41.546631%, 89.537048%)" offset="0.238281"/><stop stop-opacity="1" stop-color="rgb(7.284546%, 41.781616%, 89.776611%)" offset="0.242188"/><stop stop-opacity="1" stop-color="rgb(7.461548%, 42.015076%, 90.014648%)" offset="0.246094"/><stop stop-opacity="1" stop-color="rgb(7.640076%, 42.250061%, 90.254211%)" offset="0.25"/><stop stop-opacity="1" stop-color="rgb(7.817078%, 42.483521%, 90.493774%)" offset="0.253906"/><stop stop-opacity="1" stop-color="rgb(7.995605%, 42.718506%, 90.733337%)" offset="0.257812"/><stop stop-opacity="1" stop-color="rgb(8.172607%, 42.951965%, 90.971375%)" offset="0.261719"/><stop stop-opacity="1" stop-color="rgb(8.351135%, 43.185425%, 91.210938%)" offset="0.265625"/><stop stop-opacity="1" stop-color="rgb(8.528137%, 43.418884%, 91.448975%)" offset="0.269531"/><stop stop-opacity="1" stop-color="rgb(8.706665%, 43.65387%, 91.688538%)" offset="0.273437"/><stop stop-opacity="1" stop-color="rgb(8.885193%, 43.887329%, 91.926575%)" offset="0.277344"/><stop stop-opacity="1" stop-color="rgb(9.063721%, 44.122314%, 92.166138%)" offset="0.28125"/><stop stop-opacity="1" stop-color="rgb(9.240723%, 44.355774%, 92.404175%)" offset="0.285156"/><stop stop-opacity="1" stop-color="rgb(9.41925%, 44.590759%, 92.643738%)" offset="0.289062"/><stop stop-opacity="1" stop-color="rgb(9.596252%, 44.824219%, 92.881775%)" offset="0.292969"/><stop stop-opacity="1" stop-color="rgb(9.77478%, 45.059204%, 93.121338%)" offset="0.296875"/><stop stop-opacity="1" stop-color="rgb(9.951782%, 45.292664%, 93.359375%)" offset="0.300781"/><stop stop-opacity="1" stop-color="rgb(10.13031%, 45.527649%, 93.598938%)" offset="0.304688"/><stop stop-opacity="1" stop-color="rgb(10.308838%, 45.761108%, 93.836975%)" offset="0.308594"/><stop stop-opacity="1" stop-color="rgb(10.487366%, 45.994568%, 94.076538%)" offset="0.3125"/><stop stop-opacity="1" stop-color="rgb(10.664368%, 46.228027%, 94.314575%)" offset="0.316406"/><stop stop-opacity="1" stop-color="rgb(10.842896%, 46.463013%, 94.554138%)" offset="0.320312"/><stop stop-opacity="1" stop-color="rgb(11.019897%, 46.696472%, 94.792175%)" offset="0.324219"/><stop stop-opacity="1" stop-color="rgb(11.198425%, 46.931458%, 95.031738%)" offset="0.328125"/><stop stop-opacity="1" stop-color="rgb(11.375427%, 47.164917%, 95.269775%)" offset="0.332031"/><stop stop-opacity="1" stop-color="rgb(11.553955%, 47.399902%, 95.509338%)" offset="0.335938"/><stop stop-opacity="1" stop-color="rgb(11.732483%, 47.633362%, 95.747375%)" offset="0.339844"/><stop stop-opacity="1" stop-color="rgb(11.911011%, 47.868347%, 95.986938%)" offset="0.34375"/><stop stop-opacity="1" stop-color="rgb(12.088013%, 48.101807%, 96.224976%)" offset="0.347656"/><stop stop-opacity="1" stop-color="rgb(12.266541%, 48.335266%, 96.464539%)" offset="0.351562"/><stop stop-opacity="1" stop-color="rgb(12.443542%, 48.568726%, 96.702576%)" offset="0.355469"/><stop stop-opacity="1" stop-color="rgb(12.62207%, 48.803711%, 96.942139%)" offset="0.359375"/><stop stop-opacity="1" stop-color="rgb(12.799072%, 49.03717%, 97.181702%)" offset="0.363281"/><stop stop-opacity="1" stop-color="rgb(12.9776%, 49.272156%, 97.421265%)" offset="0.367187"/><stop stop-opacity="1" stop-color="rgb(13.156128%, 49.505615%, 97.659302%)" offset="0.371094"/><stop stop-opacity="1" stop-color="rgb(13.334656%, 49.740601%, 97.898865%)" offset="0.375"/><stop stop-opacity="1" stop-color="rgb(13.511658%, 49.97406%, 98.136902%)" offset="0.378906"/><stop stop-opacity="1" stop-color="rgb(13.690186%, 50.209045%, 98.376465%)" offset="0.382813"/><stop stop-opacity="1" stop-color="rgb(13.867188%, 50.442505%, 98.614502%)" offset="0.386719"/><stop stop-opacity="1" stop-color="rgb(14.045715%, 50.675964%, 98.854065%)" offset="0.390625"/><stop stop-opacity="1" stop-color="rgb(14.222717%, 50.909424%, 99.092102%)" offset="0.394531"/><stop stop-opacity="1" stop-color="rgb(14.401245%, 51.144409%, 99.331665%)" offset="0.398438"/><stop stop-opacity="1" stop-color="rgb(14.579773%, 51.377869%, 99.569702%)" offset="0.402344"/><stop stop-opacity="1" stop-color="rgb(14.758301%, 51.612854%, 99.809265%)" offset="0.40625"/><stop stop-opacity="1" stop-color="rgb(14.828491%, 51.705933%, 99.90387%)" offset="0.4375"/><stop stop-opacity="1" stop-color="rgb(14.898682%, 51.799011%, 100%)" offset="0.490831"/><stop stop-opacity="1" stop-color="rgb(14.898682%, 51.799011%, 100%)" offset="0.5"/><stop stop-opacity="1" stop-color="rgb(14.898682%, 51.799011%, 100%)" offset="0.509169"/><stop stop-opacity="1" stop-color="rgb(14.898682%, 51.799011%, 100%)" offset="1"/></linearGradient><clipPath id="081d4f0f31"><path d="M 61.835938 22 L 71 22 L 71 31.332031 L 61.835938 31.332031 Z M 61.835938 22 " clip-rule="nonzero"/></clipPath><clipPath id="09cc442fc3"><path d="M 70.03125 22.476562 L 61.835938 22.476562 C 61.835938 24.523438 63.492188 26.179688 65.535156 26.179688 L 67.050781 26.179688 L 67.050781 27.636719 C 67.050781 29.675781 68.703125 31.332031 70.742188 31.335938 L 70.742188 23.191406 C 70.742188 22.796875 70.425781 22.476562 70.03125 22.476562 Z M 70.03125 22.476562 " clip-rule="nonzero"/></clipPath><linearGradient x1="1.00555" gradientTransform="matrix(8.909584, 0, 0, 8.856908, 61.834265, 22.478401)" y1="0.00567494" x2="-0.00537324" gradientUnits="userSpaceOnUse" y2="0.994355" id="7d6ed2fe5c"><stop stop-opacity="1" stop-color="rgb(0%, 32.199097%, 79.998779%)" offset="0"/><stop stop-opacity="1" stop-color="rgb(0%, 32.199097%, 79.998779%)" offset="0.0625"/><stop stop-opacity="1" stop-color="rgb(0%, 32.199097%, 79.998779%)" offset="0.078125"/><stop stop-opacity="1" stop-color="rgb(0.131226%, 32.371521%, 80.174255%)" offset="0.0859375"/><stop stop-opacity="1" stop-color="rgb(0.419617%, 32.752991%, 80.563354%)" offset="0.0898438"/><stop stop-opacity="1" stop-color="rgb(0.578308%, 32.962036%, 80.776978%)" offset="0.09375"/><stop stop-opacity="1" stop-color="rgb(0.737%, 33.169556%, 80.989075%)" offset="0.0976563"/><stop stop-opacity="1" stop-color="rgb(0.895691%, 33.378601%, 81.202698%)" offset="0.101563"/><stop stop-opacity="1" stop-color="rgb(1.054382%, 33.586121%, 81.414795%)" offset="0.105469"/><stop stop-opacity="1" stop-color="rgb(1.213074%, 33.795166%, 81.628418%)" offset="0.109375"/><stop stop-opacity="1" stop-color="rgb(1.371765%, 34.004211%, 81.840515%)" offset="0.113281"/><stop stop-opacity="1" stop-color="rgb(1.530457%, 34.213257%, 82.054138%)" offset="0.117188"/><stop stop-opacity="1" stop-color="rgb(1.687622%, 34.420776%, 82.266235%)" offset="0.121094"/><stop stop-opacity="1" stop-color="rgb(1.846313%, 34.629822%, 82.479858%)" offset="0.125"/><stop stop-opacity="1" stop-color="rgb(2.005005%, 34.837341%, 82.691956%)" offset="0.128906"/><stop stop-opacity="1" stop-color="rgb(2.163696%, 35.046387%, 82.905579%)" offset="0.132813"/><stop stop-opacity="1" stop-color="rgb(2.322388%, 35.255432%, 83.117676%)" offset="0.136719"/><stop stop-opacity="1" stop-color="rgb(2.481079%, 35.464478%, 83.331299%)" offset="0.140625"/><stop stop-opacity="1" stop-color="rgb(2.639771%, 35.671997%, 83.543396%)" offset="0.144531"/><stop stop-opacity="1" stop-color="rgb(2.798462%, 35.881042%, 83.755493%)" offset="0.148438"/><stop stop-opacity="1" stop-color="rgb(2.957153%, 36.088562%, 83.96759%)" offset="0.152344"/><stop stop-opacity="1" stop-color="rgb(3.115845%, 36.297607%, 84.181213%)" offset="0.15625"/><stop stop-opacity="1" stop-color="rgb(3.27301%, 36.506653%, 84.393311%)" offset="0.160156"/><stop stop-opacity="1" stop-color="rgb(3.431702%, 36.715698%, 84.606934%)" offset="0.164063"/><stop stop-opacity="1" stop-color="rgb(3.590393%, 36.923218%, 84.819031%)" offset="0.167969"/><stop stop-opacity="1" stop-color="rgb(3.749084%, 37.132263%, 85.032654%)" offset="0.171875"/><stop stop-opacity="1" stop-color="rgb(3.907776%, 37.339783%, 85.244751%)" offset="0.175781"/><stop stop-opacity="1" stop-color="rgb(4.066467%, 37.548828%, 85.458374%)" offset="0.179688"/><stop stop-opacity="1" stop-color="rgb(4.225159%, 37.756348%, 85.670471%)" offset="0.183594"/><stop stop-opacity="1" stop-color="rgb(4.38385%, 37.965393%, 85.884094%)" offset="0.1875"/><stop stop-opacity="1" stop-color="rgb(4.541016%, 38.174438%, 86.096191%)" offset="0.191406"/><stop stop-opacity="1" stop-color="rgb(4.699707%, 38.383484%, 86.309814%)" offset="0.195313"/><stop stop-opacity="1" stop-color="rgb(4.858398%, 38.591003%, 86.521912%)" offset="0.199219"/><stop stop-opacity="1" stop-color="rgb(5.01709%, 38.800049%, 86.735535%)" offset="0.203125"/><stop stop-opacity="1" stop-color="rgb(5.175781%, 39.007568%, 86.947632%)" offset="0.207031"/><stop stop-opacity="1" stop-color="rgb(5.334473%, 39.216614%, 87.159729%)" offset="0.210938"/><stop stop-opacity="1" stop-color="rgb(5.493164%, 39.425659%, 87.371826%)" offset="0.214844"/><stop stop-opacity="1" stop-color="rgb(5.651855%, 39.634705%, 87.585449%)" offset="0.21875"/><stop stop-opacity="1" stop-color="rgb(5.809021%, 39.842224%, 87.797546%)" offset="0.222656"/><stop stop-opacity="1" stop-color="rgb(5.967712%, 40.05127%, 88.011169%)" offset="0.226563"/><stop stop-opacity="1" stop-color="rgb(6.126404%, 40.258789%, 88.223267%)" offset="0.230469"/><stop stop-opacity="1" stop-color="rgb(6.285095%, 40.467834%, 88.43689%)" offset="0.234375"/><stop stop-opacity="1" stop-color="rgb(6.443787%, 40.67688%, 88.648987%)" offset="0.238281"/><stop stop-opacity="1" stop-color="rgb(6.602478%, 40.885925%, 88.86261%)" offset="0.242188"/><stop stop-opacity="1" stop-color="rgb(6.761169%, 41.093445%, 89.074707%)" offset="0.246094"/><stop stop-opacity="1" stop-color="rgb(6.919861%, 41.30249%, 89.28833%)" offset="0.25"/><stop stop-opacity="1" stop-color="rgb(7.077026%, 41.51001%, 89.500427%)" offset="0.253906"/><stop stop-opacity="1" stop-color="rgb(7.235718%, 41.719055%, 89.71405%)" offset="0.257813"/><stop stop-opacity="1" stop-color="rgb(7.394409%, 41.926575%, 89.926147%)" offset="0.261719"/><stop stop-opacity="1" stop-color="rgb(7.553101%, 42.13562%, 90.139771%)" offset="0.265625"/><stop stop-opacity="1" stop-color="rgb(7.711792%, 42.344666%, 90.351868%)" offset="0.269531"/><stop stop-opacity="1" stop-color="rgb(7.870483%, 42.553711%, 90.563965%)" offset="0.273438"/><stop stop-opacity="1" stop-color="rgb(8.029175%, 42.76123%, 90.776062%)" offset="0.277344"/><stop stop-opacity="1" stop-color="rgb(8.187866%, 42.970276%, 90.989685%)" offset="0.28125"/><stop stop-opacity="1" stop-color="rgb(8.345032%, 43.177795%, 91.201782%)" offset="0.285156"/><stop stop-opacity="1" stop-color="rgb(8.503723%, 43.386841%, 91.415405%)" offset="0.289062"/><stop stop-opacity="1" stop-color="rgb(8.662415%, 43.595886%, 91.627502%)" offset="0.292969"/><stop stop-opacity="1" stop-color="rgb(8.821106%, 43.804932%, 91.841125%)" offset="0.296875"/><stop stop-opacity="1" stop-color="rgb(8.979797%, 44.012451%, 92.053223%)" offset="0.300781"/><stop stop-opacity="1" stop-color="rgb(9.138489%, 44.221497%, 92.266846%)" offset="0.304688"/><stop stop-opacity="1" stop-color="rgb(9.29718%, 44.429016%, 92.478943%)" offset="0.308594"/><stop stop-opacity="1" stop-color="rgb(9.455872%, 44.638062%, 92.692566%)" offset="0.3125"/><stop stop-opacity="1" stop-color="rgb(9.614563%, 44.847107%, 92.904663%)" offset="0.316406"/><stop stop-opacity="1" stop-color="rgb(9.773254%, 45.056152%, 93.118286%)" offset="0.320313"/><stop stop-opacity="1" stop-color="rgb(9.93042%, 45.263672%, 93.330383%)" offset="0.324219"/><stop stop-opacity="1" stop-color="rgb(10.089111%, 45.472717%, 93.544006%)" offset="0.328125"/><stop stop-opacity="1" stop-color="rgb(10.247803%, 45.680237%, 93.756104%)" offset="0.332031"/><stop stop-opacity="1" stop-color="rgb(10.406494%, 45.889282%, 93.968201%)" offset="0.335938"/><stop stop-opacity="1" stop-color="rgb(10.565186%, 46.096802%, 94.180298%)" offset="0.339844"/><stop stop-opacity="1" stop-color="rgb(10.723877%, 46.305847%, 94.393921%)" offset="0.34375"/><stop stop-opacity="1" stop-color="rgb(10.882568%, 46.514893%, 94.606018%)" offset="0.347656"/><stop stop-opacity="1" stop-color="rgb(11.04126%, 46.723938%, 94.819641%)" offset="0.351563"/><stop stop-opacity="1" stop-color="rgb(11.198425%, 46.931458%, 95.031738%)" offset="0.355469"/><stop stop-opacity="1" stop-color="rgb(11.357117%, 47.140503%, 95.245361%)" offset="0.359375"/><stop stop-opacity="1" stop-color="rgb(11.515808%, 47.348022%, 95.457458%)" offset="0.363281"/><stop stop-opacity="1" stop-color="rgb(11.6745%, 47.557068%, 95.671082%)" offset="0.367188"/><stop stop-opacity="1" stop-color="rgb(11.833191%, 47.766113%, 95.883179%)" offset="0.371094"/><stop stop-opacity="1" stop-color="rgb(11.991882%, 47.975159%, 96.096802%)" offset="0.375"/><stop stop-opacity="1" stop-color="rgb(12.150574%, 48.182678%, 96.308899%)" offset="0.378906"/><stop stop-opacity="1" stop-color="rgb(12.309265%, 48.391724%, 96.522522%)" offset="0.382813"/><stop stop-opacity="1" stop-color="rgb(12.466431%, 48.599243%, 96.734619%)" offset="0.386719"/><stop stop-opacity="1" stop-color="rgb(12.625122%, 48.808289%, 96.948242%)" offset="0.390625"/><stop stop-opacity="1" stop-color="rgb(12.783813%, 49.017334%, 97.160339%)" offset="0.394531"/><stop stop-opacity="1" stop-color="rgb(12.942505%, 49.226379%, 97.372437%)" offset="0.398438"/><stop stop-opacity="1" stop-color="rgb(13.101196%, 49.433899%, 97.584534%)" offset="0.402344"/><stop stop-opacity="1" stop-color="rgb(13.259888%, 49.642944%, 97.798157%)" offset="0.40625"/><stop stop-opacity="1" stop-color="rgb(13.418579%, 49.850464%, 98.010254%)" offset="0.410156"/><stop stop-opacity="1" stop-color="rgb(13.577271%, 50.059509%, 98.223877%)" offset="0.414063"/><stop stop-opacity="1" stop-color="rgb(13.734436%, 50.267029%, 98.435974%)" offset="0.417969"/><stop stop-opacity="1" stop-color="rgb(13.893127%, 50.476074%, 98.649597%)" offset="0.421875"/><stop stop-opacity="1" stop-color="rgb(14.051819%, 50.68512%, 98.861694%)" offset="0.425781"/><stop stop-opacity="1" stop-color="rgb(14.21051%, 50.894165%, 99.075317%)" offset="0.429688"/><stop stop-opacity="1" stop-color="rgb(14.369202%, 51.101685%, 99.287415%)" offset="0.433594"/><stop stop-opacity="1" stop-color="rgb(14.527893%, 51.31073%, 99.501038%)" offset="0.4375"/><stop stop-opacity="1" stop-color="rgb(14.686584%, 51.51825%, 99.713135%)" offset="0.441406"/><stop stop-opacity="1" stop-color="rgb(14.845276%, 51.727295%, 99.926758%)" offset="0.445313"/><stop stop-opacity="1" stop-color="rgb(14.871216%, 51.76239%, 99.963379%)" offset="0.453125"/><stop stop-opacity="1" stop-color="rgb(14.898682%, 51.799011%, 100%)" offset="0.46875"/><stop stop-opacity="1" stop-color="rgb(14.898682%, 51.799011%, 100%)" offset="0.4944"/><stop stop-opacity="1" stop-color="rgb(14.898682%, 51.799011%, 100%)" offset="0.5"/><stop stop-opacity="1" stop-color="rgb(14.898682%, 51.799011%, 100%)" offset="0.5056"/><stop stop-opacity="1" stop-color="rgb(14.898682%, 51.799011%, 100%)" offset="1"/></linearGradient></defs><g fill="#f2f2f2" fill-opacity="1"><g transform="translate(26.244841, 29.510809)"><g><path d="M 13.140625 0.296875 C 11.546875 0.296875 10.054688 0 8.671875 -0.59375 C 7.285156 -1.195312 6.0625 -2.03125 5 -3.09375 C 3.9375 -4.15625 3.101562 -5.378906 2.5 -6.765625 C 1.90625 -8.148438 1.609375 -9.640625 1.609375 -11.234375 C 1.609375 -12.828125 1.90625 -14.316406 2.5 -15.703125 C 3.101562 -17.085938 3.9375 -18.3125 5 -19.375 C 6.0625 -20.4375 7.285156 -21.265625 8.671875 -21.859375 C 10.054688 -22.460938 11.546875 -22.765625 13.140625 -22.765625 C 15.335938 -22.765625 17.328125 -22.207031 19.109375 -21.09375 C 20.898438 -19.988281 22.28125 -18.535156 23.25 -16.734375 L 20.109375 -15.046875 C 19.453125 -16.296875 18.503906 -17.285156 17.265625 -18.015625 C 16.035156 -18.753906 14.660156 -19.125 13.140625 -19.125 C 11.671875 -19.125 10.335938 -18.773438 9.140625 -18.078125 C 7.941406 -17.378906 6.988281 -16.4375 6.28125 -15.25 C 5.582031 -14.070312 5.234375 -12.734375 5.234375 -11.234375 C 5.234375 -9.734375 5.582031 -8.390625 6.28125 -7.203125 C 6.988281 -6.015625 7.941406 -5.070312 9.140625 -4.375 C 10.335938 -3.675781 11.671875 -3.328125 13.140625 -3.328125 C 14.660156 -3.328125 16.035156 -3.703125 17.265625 -4.453125 C 18.503906 -5.203125 19.453125 -6.1875 20.109375 -7.40625 L 23.25 -5.734375 C 22.28125 -3.929688 20.898438 -2.472656 19.109375 -1.359375 C 17.328125 -0.253906 15.335938 0.296875 13.140625 0.296875 Z M 13.140625 0.296875 "/></g></g></g><g fill="#f2f2f2" fill-opacity="1"><g transform="translate(49.981686, 29.510809)"><g><path d="M 2.46875 0 L 2.46875 -26.65625 L 6.03125 -26.65625 L 6.03125 0 Z M 2.46875 0 "/></g></g></g><g fill="#f2f2f2" fill-opacity="1"><g transform="translate(57.885464, 29.510809)"><g/></g></g><g fill="#f2f2f2" fill-opacity="1"><g transform="translate(66.271797, 29.510809)"><g/></g></g><g fill="#f2f2f2" fill-opacity="1"><g transform="translate(74.65813, 29.510809)"><g/></g></g><g fill="#f2f2f2" fill-opacity="1"><g transform="translate(83.049937, 29.510809)"><g><path d="M 13.859375 -26.65625 L 17.40625 -26.65625 L 17.40625 0 L 13.859375 0 L 13.859375 -1.578125 C 13.234375 -1.003906 12.507812 -0.546875 11.6875 -0.203125 C 10.863281 0.128906 9.972656 0.296875 9.015625 0.296875 C 7.617188 0.296875 6.335938 -0.0507812 5.171875 -0.75 C 4.015625 -1.445312 3.097656 -2.378906 2.421875 -3.546875 C 1.753906 -4.722656 1.421875 -6.035156 1.421875 -7.484375 C 1.421875 -8.929688 1.753906 -10.238281 2.421875 -11.40625 C 3.097656 -12.582031 4.015625 -13.519531 5.171875 -14.21875 C 6.335938 -14.925781 7.617188 -15.28125 9.015625 -15.28125 C 9.972656 -15.28125 10.863281 -15.109375 11.6875 -14.765625 C 12.507812 -14.429688 13.234375 -13.976562 13.859375 -13.40625 Z M 9.46875 -3 C 10.289062 -3 11.046875 -3.195312 11.734375 -3.59375 C 12.421875 -3.988281 12.960938 -4.53125 13.359375 -5.21875 C 13.765625 -5.90625 13.96875 -6.660156 13.96875 -7.484375 C 13.96875 -8.335938 13.765625 -9.097656 13.359375 -9.765625 C 12.960938 -10.441406 12.421875 -10.976562 11.734375 -11.375 C 11.046875 -11.78125 10.289062 -11.984375 9.46875 -11.984375 C 8.644531 -11.984375 7.890625 -11.78125 7.203125 -11.375 C 6.515625 -10.976562 5.972656 -10.441406 5.578125 -9.765625 C 5.179688 -9.097656 4.984375 -8.335938 4.984375 -7.484375 C 4.984375 -6.660156 5.179688 -5.90625 5.578125 -5.21875 C 5.972656 -4.53125 6.515625 -3.988281 7.203125 -3.59375 C 7.890625 -3.195312 8.644531 -3 9.46875 -3 Z M 9.46875 -3 "/></g></g></g><g fill="#2684ff" fill-opacity="1"><g transform="translate(102.339616, 29.510809)"><g><path d="M 16.890625 -22.46875 L 20.5625 -22.46875 L 20.5625 0 L 16.890625 0 L 16.890625 -9.546875 L 6.140625 -9.546875 L 6.140625 0 L 2.46875 0 L 2.46875 -22.46875 L 6.140625 -22.46875 L 6.140625 -12.953125 L 16.890625 -12.953125 Z M 16.890625 -22.46875 "/></g></g></g><g fill="#2684ff" fill-opacity="1"><g transform="translate(124.766053, 29.510809)"><g><path d="M 8.34375 0.296875 C 6.375 0.296875 4.832031 -0.222656 3.71875 -1.265625 C 2.613281 -2.316406 2.0625 -3.742188 2.0625 -5.546875 L 2.0625 -14.984375 L 5.578125 -14.984375 L 5.578125 -5.984375 C 5.578125 -5.066406 5.835938 -4.335938 6.359375 -3.796875 C 6.890625 -3.265625 7.550781 -3 8.34375 -3 C 9.144531 -3 9.804688 -3.265625 10.328125 -3.796875 C 10.859375 -4.335938 11.125 -5.066406 11.125 -5.984375 L 11.125 -14.984375 L 14.640625 -14.984375 L 14.640625 -5.546875 C 14.640625 -3.742188 14.082031 -2.316406 12.96875 -1.265625 C 11.863281 -0.222656 10.320312 0.296875 8.34375 0.296875 Z M 8.34375 0.296875 "/></g></g></g><g fill="#2684ff" fill-opacity="1"><g transform="translate(140.865086, 29.510809)"><g><path d="M 10.859375 -15.28125 C 12.285156 -15.28125 13.570312 -14.925781 14.71875 -14.21875 C 15.863281 -13.519531 16.769531 -12.582031 17.4375 -11.40625 C 18.113281 -10.238281 18.453125 -8.929688 18.453125 -7.484375 C 18.453125 -6.035156 18.113281 -4.722656 17.4375 -3.546875 C 16.769531 -2.378906 15.863281 -1.445312 14.71875 -0.75 C 13.570312 -0.0507812 12.285156 0.296875 10.859375 0.296875 C 9.910156 0.296875 9.03125 0.128906 8.21875 -0.203125 C 7.40625 -0.546875 6.675781 -1.003906 6.03125 -1.578125 L 6.03125 0 L 2.46875 0 L 2.46875 -26.65625 L 6.03125 -26.65625 L 6.03125 -13.40625 C 6.675781 -13.976562 7.40625 -14.429688 8.21875 -14.765625 C 9.03125 -15.109375 9.910156 -15.28125 10.859375 -15.28125 Z M 10.40625 -3 C 11.257812 -3 12.019531 -3.195312 12.6875 -3.59375 C 13.363281 -3.988281 13.898438 -4.53125 14.296875 -5.21875 C 14.703125 -5.90625 14.90625 -6.660156 14.90625 -7.484375 C 14.90625 -8.335938 14.703125 -9.097656 14.296875 -9.765625 C 13.898438 -10.441406 13.363281 -10.976562 12.6875 -11.375 C 12.019531 -11.78125 11.257812 -11.984375 10.40625 -11.984375 C 9.582031 -11.984375 8.828125 -11.78125 8.140625 -11.375 C 7.453125 -10.976562 6.910156 -10.441406 6.515625 -9.765625 C 6.117188 -9.097656 5.921875 -8.335938 5.921875 -7.484375 C 5.921875 -6.660156 6.117188 -5.90625 6.515625 -5.21875 C 6.910156 -4.53125 7.453125 -3.988281 8.140625 -3.59375 C 8.828125 -3.195312 9.582031 -3 10.40625 -3 Z M 10.40625 -3 "/></g></g></g><g clip-path="url(#4281fc15dd)"><path fill="#2684ff" d="M 78.148438 14.3125 L 69.949219 14.3125 C 69.949219 15.292969 70.339844 16.234375 71.035156 16.929688 C 71.726562 17.621094 72.667969 18.011719 73.648438 18.011719 L 75.160156 18.011719 L 75.160156 19.46875 C 75.160156 21.511719 76.816406 23.167969 78.859375 23.167969 L 78.859375 15.023438 C 78.859375 14.628906 78.539062 14.3125 78.148438 14.3125 Z M 78.148438 14.3125 " fill-opacity="1" fill-rule="nonzero"/></g><g clip-path="url(#442310760a)"><g clip-path="url(#2dd22bcf88)"><path fill="url(#2c9fe16d7d)" d="M 65.894531 18.394531 L 65.894531 27.253906 L 74.800781 27.253906 L 74.800781 18.394531 Z M 65.894531 18.394531 " fill-rule="nonzero"/></g></g><g clip-path="url(#081d4f0f31)"><g clip-path="url(#09cc442fc3)"><path fill="url(#7d6ed2fe5c)" d="M 61.835938 22.476562 L 61.835938 31.332031 L 70.742188 31.332031 L 70.742188 22.476562 Z M 61.835938 22.476562 " fill-rule="nonzero"/></g></g></svg>