<svg xmlns="http://www.w3.org/2000/svg" xmlns:xlink="http://www.w3.org/1999/xlink" width="250" zoomAndPan="magnify" viewBox="0 0 187.5 37.5" height="50" preserveAspectRatio="xMidYMid meet" version="1.0"><defs><g/><clipPath id="a2aee419d6"><path d="M 51 12.796875 L 62.285156 12.796875 L 62.285156 24 L 51 24 Z M 51 12.796875 " clip-rule="nonzero"/></clipPath><clipPath id="3bea4ac514"><path d="M 46 17 L 58 17 L 58 29 L 46 29 Z M 46 17 " clip-rule="nonzero"/></clipPath><clipPath id="61e51c5247"><path d="M 56.609375 17.660156 L 46.847656 17.660156 C 46.851562 20.09375 48.820312 22.0625 51.253906 22.066406 L 53.050781 22.066406 L 53.050781 23.808594 C 53.054688 26.238281 55.023438 28.207031 57.457031 28.207031 L 57.457031 18.507812 C 57.457031 18.042969 57.078125 17.660156 56.609375 17.660156 Z M 56.609375 17.660156 " clip-rule="nonzero"/></clipPath><linearGradient x1="0.990596" gradientTransform="matrix(10.607496, 0, 0, 10.545417, 46.848942, 17.661898)" y1="-0.00906485" x2="0.00926417" gradientUnits="userSpaceOnUse" y2="1.008931" id="19b626c670"><stop stop-opacity="1" stop-color="rgb(0%, 32.199097%, 79.998779%)" offset="0"/><stop stop-opacity="1" stop-color="rgb(0%, 32.199097%, 79.998779%)" offset="0.0625"/><stop stop-opacity="1" stop-color="rgb(0%, 32.199097%, 79.998779%)" offset="0.078125"/><stop stop-opacity="1" stop-color="rgb(0.0823975%, 32.30896%, 80.110168%)" offset="0.0859375"/><stop stop-opacity="1" stop-color="rgb(0.343323%, 32.652283%, 80.461121%)" offset="0.0898437"/><stop stop-opacity="1" stop-color="rgb(0.521851%, 32.887268%, 80.700684%)" offset="0.09375"/><stop stop-opacity="1" stop-color="rgb(0.698853%, 33.120728%, 80.938721%)" offset="0.0976562"/><stop stop-opacity="1" stop-color="rgb(0.87738%, 33.354187%, 81.178284%)" offset="0.101562"/><stop stop-opacity="1" stop-color="rgb(1.054382%, 33.587646%, 81.416321%)" offset="0.105469"/><stop stop-opacity="1" stop-color="rgb(1.23291%, 33.822632%, 81.655884%)" offset="0.109375"/><stop stop-opacity="1" stop-color="rgb(1.411438%, 34.056091%, 81.893921%)" offset="0.113281"/><stop stop-opacity="1" stop-color="rgb(1.589966%, 34.291077%, 82.133484%)" offset="0.117187"/><stop stop-opacity="1" stop-color="rgb(1.766968%, 34.524536%, 82.371521%)" offset="0.121094"/><stop stop-opacity="1" stop-color="rgb(1.945496%, 34.759521%, 82.611084%)" offset="0.125"/><stop stop-opacity="1" stop-color="rgb(2.122498%, 34.992981%, 82.849121%)" offset="0.128906"/><stop stop-opacity="1" stop-color="rgb(2.301025%, 35.227966%, 83.088684%)" offset="0.132812"/><stop stop-opacity="1" stop-color="rgb(2.478027%, 35.461426%, 83.326721%)" offset="0.136719"/><stop stop-opacity="1" stop-color="rgb(2.656555%, 35.694885%, 83.566284%)" offset="0.140625"/><stop stop-opacity="1" stop-color="rgb(2.835083%, 35.928345%, 83.804321%)" offset="0.144531"/><stop stop-opacity="1" stop-color="rgb(3.013611%, 36.16333%, 84.043884%)" offset="0.148437"/><stop stop-opacity="1" stop-color="rgb(3.190613%, 36.39679%, 84.283447%)" offset="0.152344"/><stop stop-opacity="1" stop-color="rgb(3.369141%, 36.631775%, 84.52301%)" offset="0.15625"/><stop stop-opacity="1" stop-color="rgb(3.546143%, 36.865234%, 84.761047%)" offset="0.160156"/><stop stop-opacity="1" stop-color="rgb(3.72467%, 37.10022%, 85.00061%)" offset="0.164062"/><stop stop-opacity="1" stop-color="rgb(3.901672%, 37.333679%, 85.238647%)" offset="0.167969"/><stop stop-opacity="1" stop-color="rgb(4.0802%, 37.568665%, 85.47821%)" offset="0.171875"/><stop stop-opacity="1" stop-color="rgb(4.258728%, 37.802124%, 85.716248%)" offset="0.175781"/><stop stop-opacity="1" stop-color="rgb(4.437256%, 38.035583%, 85.955811%)" offset="0.179687"/><stop stop-opacity="1" stop-color="rgb(4.614258%, 38.269043%, 86.193848%)" offset="0.183594"/><stop stop-opacity="1" stop-color="rgb(4.792786%, 38.504028%, 86.433411%)" offset="0.1875"/><stop stop-opacity="1" stop-color="rgb(4.969788%, 38.737488%, 86.671448%)" offset="0.191406"/><stop stop-opacity="1" stop-color="rgb(5.148315%, 38.972473%, 86.911011%)" offset="0.195312"/><stop stop-opacity="1" stop-color="rgb(5.325317%, 39.205933%, 87.149048%)" offset="0.199219"/><stop stop-opacity="1" stop-color="rgb(5.503845%, 39.440918%, 87.388611%)" offset="0.203125"/><stop stop-opacity="1" stop-color="rgb(5.682373%, 39.674377%, 87.626648%)" offset="0.207031"/><stop stop-opacity="1" stop-color="rgb(5.860901%, 39.909363%, 87.866211%)" offset="0.210937"/><stop stop-opacity="1" stop-color="rgb(6.037903%, 40.142822%, 88.104248%)" offset="0.214844"/><stop stop-opacity="1" stop-color="rgb(6.216431%, 40.377808%, 88.343811%)" offset="0.21875"/><stop stop-opacity="1" stop-color="rgb(6.393433%, 40.611267%, 88.581848%)" offset="0.222656"/><stop stop-opacity="1" stop-color="rgb(6.57196%, 40.844727%, 88.821411%)" offset="0.226562"/><stop stop-opacity="1" stop-color="rgb(6.748962%, 41.078186%, 89.059448%)" offset="0.230469"/><stop stop-opacity="1" stop-color="rgb(6.92749%, 41.313171%, 89.299011%)" offset="0.234375"/><stop stop-opacity="1" stop-color="rgb(7.106018%, 41.546631%, 89.537048%)" offset="0.238281"/><stop stop-opacity="1" stop-color="rgb(7.284546%, 41.781616%, 89.776611%)" offset="0.242187"/><stop stop-opacity="1" stop-color="rgb(7.461548%, 42.015076%, 90.014648%)" offset="0.246094"/><stop stop-opacity="1" stop-color="rgb(7.640076%, 42.250061%, 90.254211%)" offset="0.25"/><stop stop-opacity="1" stop-color="rgb(7.817078%, 42.483521%, 90.493774%)" offset="0.253906"/><stop stop-opacity="1" stop-color="rgb(7.995605%, 42.718506%, 90.733337%)" offset="0.257812"/><stop stop-opacity="1" stop-color="rgb(8.172607%, 42.951965%, 90.971375%)" offset="0.261719"/><stop stop-opacity="1" stop-color="rgb(8.351135%, 43.185425%, 91.210938%)" offset="0.265625"/><stop stop-opacity="1" stop-color="rgb(8.528137%, 43.418884%, 91.448975%)" offset="0.269531"/><stop stop-opacity="1" stop-color="rgb(8.706665%, 43.65387%, 91.688538%)" offset="0.273438"/><stop stop-opacity="1" stop-color="rgb(8.885193%, 43.887329%, 91.926575%)" offset="0.277344"/><stop stop-opacity="1" stop-color="rgb(9.063721%, 44.122314%, 92.166138%)" offset="0.28125"/><stop stop-opacity="1" stop-color="rgb(9.240723%, 44.355774%, 92.404175%)" offset="0.285156"/><stop stop-opacity="1" stop-color="rgb(9.41925%, 44.590759%, 92.643738%)" offset="0.289062"/><stop stop-opacity="1" stop-color="rgb(9.596252%, 44.824219%, 92.881775%)" offset="0.292969"/><stop stop-opacity="1" stop-color="rgb(9.77478%, 45.059204%, 93.121338%)" offset="0.296875"/><stop stop-opacity="1" stop-color="rgb(9.951782%, 45.292664%, 93.359375%)" offset="0.300781"/><stop stop-opacity="1" stop-color="rgb(10.13031%, 45.527649%, 93.598938%)" offset="0.304687"/><stop stop-opacity="1" stop-color="rgb(10.308838%, 45.761108%, 93.836975%)" offset="0.308594"/><stop stop-opacity="1" stop-color="rgb(10.487366%, 45.994568%, 94.076538%)" offset="0.3125"/><stop stop-opacity="1" stop-color="rgb(10.664368%, 46.228027%, 94.314575%)" offset="0.316406"/><stop stop-opacity="1" stop-color="rgb(10.842896%, 46.463013%, 94.554138%)" offset="0.320312"/><stop stop-opacity="1" stop-color="rgb(11.019897%, 46.696472%, 94.792175%)" offset="0.324219"/><stop stop-opacity="1" stop-color="rgb(11.198425%, 46.931458%, 95.031738%)" offset="0.328125"/><stop stop-opacity="1" stop-color="rgb(11.375427%, 47.164917%, 95.269775%)" offset="0.332031"/><stop stop-opacity="1" stop-color="rgb(11.553955%, 47.399902%, 95.509338%)" offset="0.335937"/><stop stop-opacity="1" stop-color="rgb(11.732483%, 47.633362%, 95.747375%)" offset="0.339844"/><stop stop-opacity="1" stop-color="rgb(11.911011%, 47.868347%, 95.986938%)" offset="0.34375"/><stop stop-opacity="1" stop-color="rgb(12.088013%, 48.101807%, 96.224976%)" offset="0.347656"/><stop stop-opacity="1" stop-color="rgb(12.266541%, 48.335266%, 96.464539%)" offset="0.351562"/><stop stop-opacity="1" stop-color="rgb(12.443542%, 48.568726%, 96.702576%)" offset="0.355469"/><stop stop-opacity="1" stop-color="rgb(12.62207%, 48.803711%, 96.942139%)" offset="0.359375"/><stop stop-opacity="1" stop-color="rgb(12.799072%, 49.03717%, 97.181702%)" offset="0.363281"/><stop stop-opacity="1" stop-color="rgb(12.9776%, 49.272156%, 97.421265%)" offset="0.367188"/><stop stop-opacity="1" stop-color="rgb(13.156128%, 49.505615%, 97.659302%)" offset="0.371094"/><stop stop-opacity="1" stop-color="rgb(13.334656%, 49.740601%, 97.898865%)" offset="0.375"/><stop stop-opacity="1" stop-color="rgb(13.511658%, 49.97406%, 98.136902%)" offset="0.378906"/><stop stop-opacity="1" stop-color="rgb(13.690186%, 50.209045%, 98.376465%)" offset="0.382812"/><stop stop-opacity="1" stop-color="rgb(13.867188%, 50.442505%, 98.614502%)" offset="0.386719"/><stop stop-opacity="1" stop-color="rgb(14.045715%, 50.675964%, 98.854065%)" offset="0.390625"/><stop stop-opacity="1" stop-color="rgb(14.222717%, 50.909424%, 99.092102%)" offset="0.394531"/><stop stop-opacity="1" stop-color="rgb(14.401245%, 51.144409%, 99.331665%)" offset="0.398437"/><stop stop-opacity="1" stop-color="rgb(14.579773%, 51.377869%, 99.569702%)" offset="0.402344"/><stop stop-opacity="1" stop-color="rgb(14.758301%, 51.612854%, 99.809265%)" offset="0.40625"/><stop stop-opacity="1" stop-color="rgb(14.828491%, 51.705933%, 99.90387%)" offset="0.4375"/><stop stop-opacity="1" stop-color="rgb(14.898682%, 51.799011%, 100%)" offset="0.490831"/><stop stop-opacity="1" stop-color="rgb(14.898682%, 51.799011%, 100%)" offset="0.5"/><stop stop-opacity="1" stop-color="rgb(14.898682%, 51.799011%, 100%)" offset="0.509169"/><stop stop-opacity="1" stop-color="rgb(14.898682%, 51.799011%, 100%)" offset="1"/></linearGradient><clipPath id="8f3a3ee9fa"><path d="M 42.015625 22 L 53 22 L 53 33.066406 L 42.015625 33.066406 Z M 42.015625 22 " clip-rule="nonzero"/></clipPath><clipPath id="1d2eb7f20a"><path d="M 51.777344 22.523438 L 42.015625 22.523438 C 42.015625 24.957031 43.988281 26.929688 46.421875 26.929688 L 48.226562 26.929688 L 48.226562 28.664062 C 48.226562 31.09375 50.195312 33.0625 52.625 33.066406 L 52.625 23.371094 C 52.625 22.902344 52.246094 22.523438 51.777344 22.523438 Z M 51.777344 22.523438 " clip-rule="nonzero"/></clipPath><linearGradient x1="1.00555" gradientTransform="matrix(10.607496, 0, 0, 10.544782, 42.016742, 22.522512)" y1="0.00567497" x2="-0.00537356" gradientUnits="userSpaceOnUse" y2="0.994355" id="610e79e1d4"><stop stop-opacity="1" stop-color="rgb(0%, 32.199097%, 79.998779%)" offset="0"/><stop stop-opacity="1" stop-color="rgb(0%, 32.199097%, 79.998779%)" offset="0.0625"/><stop stop-opacity="1" stop-color="rgb(0%, 32.199097%, 79.998779%)" offset="0.078125"/><stop stop-opacity="1" stop-color="rgb(0.131226%, 32.371521%, 80.174255%)" offset="0.0859375"/><stop stop-opacity="1" stop-color="rgb(0.419617%, 32.752991%, 80.563354%)" offset="0.0898438"/><stop stop-opacity="1" stop-color="rgb(0.578308%, 32.962036%, 80.776978%)" offset="0.09375"/><stop stop-opacity="1" stop-color="rgb(0.737%, 33.169556%, 80.989075%)" offset="0.0976562"/><stop stop-opacity="1" stop-color="rgb(0.895691%, 33.378601%, 81.202698%)" offset="0.101562"/><stop stop-opacity="1" stop-color="rgb(1.054382%, 33.586121%, 81.414795%)" offset="0.105469"/><stop stop-opacity="1" stop-color="rgb(1.213074%, 33.795166%, 81.628418%)" offset="0.109375"/><stop stop-opacity="1" stop-color="rgb(1.371765%, 34.004211%, 81.840515%)" offset="0.113281"/><stop stop-opacity="1" stop-color="rgb(1.530457%, 34.213257%, 82.054138%)" offset="0.117188"/><stop stop-opacity="1" stop-color="rgb(1.687622%, 34.420776%, 82.266235%)" offset="0.121094"/><stop stop-opacity="1" stop-color="rgb(1.846313%, 34.629822%, 82.479858%)" offset="0.125"/><stop stop-opacity="1" stop-color="rgb(2.005005%, 34.837341%, 82.691956%)" offset="0.128906"/><stop stop-opacity="1" stop-color="rgb(2.163696%, 35.046387%, 82.905579%)" offset="0.132812"/><stop stop-opacity="1" stop-color="rgb(2.322388%, 35.255432%, 83.117676%)" offset="0.136719"/><stop stop-opacity="1" stop-color="rgb(2.481079%, 35.464478%, 83.331299%)" offset="0.140625"/><stop stop-opacity="1" stop-color="rgb(2.639771%, 35.671997%, 83.543396%)" offset="0.144531"/><stop stop-opacity="1" stop-color="rgb(2.798462%, 35.881042%, 83.755493%)" offset="0.148438"/><stop stop-opacity="1" stop-color="rgb(2.957153%, 36.088562%, 83.96759%)" offset="0.152344"/><stop stop-opacity="1" stop-color="rgb(3.115845%, 36.297607%, 84.181213%)" offset="0.15625"/><stop stop-opacity="1" stop-color="rgb(3.27301%, 36.506653%, 84.393311%)" offset="0.160156"/><stop stop-opacity="1" stop-color="rgb(3.431702%, 36.715698%, 84.606934%)" offset="0.164063"/><stop stop-opacity="1" stop-color="rgb(3.590393%, 36.923218%, 84.819031%)" offset="0.167969"/><stop stop-opacity="1" stop-color="rgb(3.749084%, 37.132263%, 85.032654%)" offset="0.171875"/><stop stop-opacity="1" stop-color="rgb(3.907776%, 37.339783%, 85.244751%)" offset="0.175781"/><stop stop-opacity="1" stop-color="rgb(4.066467%, 37.548828%, 85.458374%)" offset="0.179688"/><stop stop-opacity="1" stop-color="rgb(4.225159%, 37.756348%, 85.670471%)" offset="0.183594"/><stop stop-opacity="1" stop-color="rgb(4.38385%, 37.965393%, 85.884094%)" offset="0.1875"/><stop stop-opacity="1" stop-color="rgb(4.541016%, 38.174438%, 86.096191%)" offset="0.191406"/><stop stop-opacity="1" stop-color="rgb(4.699707%, 38.383484%, 86.309814%)" offset="0.195313"/><stop stop-opacity="1" stop-color="rgb(4.858398%, 38.591003%, 86.521912%)" offset="0.199219"/><stop stop-opacity="1" stop-color="rgb(5.01709%, 38.800049%, 86.735535%)" offset="0.203125"/><stop stop-opacity="1" stop-color="rgb(5.175781%, 39.007568%, 86.947632%)" offset="0.207031"/><stop stop-opacity="1" stop-color="rgb(5.334473%, 39.216614%, 87.159729%)" offset="0.210938"/><stop stop-opacity="1" stop-color="rgb(5.493164%, 39.425659%, 87.371826%)" offset="0.214844"/><stop stop-opacity="1" stop-color="rgb(5.651855%, 39.634705%, 87.585449%)" offset="0.21875"/><stop stop-opacity="1" stop-color="rgb(5.809021%, 39.842224%, 87.797546%)" offset="0.222656"/><stop stop-opacity="1" stop-color="rgb(5.967712%, 40.05127%, 88.011169%)" offset="0.226563"/><stop stop-opacity="1" stop-color="rgb(6.126404%, 40.258789%, 88.223267%)" offset="0.230469"/><stop stop-opacity="1" stop-color="rgb(6.285095%, 40.467834%, 88.43689%)" offset="0.234375"/><stop stop-opacity="1" stop-color="rgb(6.443787%, 40.67688%, 88.648987%)" offset="0.238281"/><stop stop-opacity="1" stop-color="rgb(6.602478%, 40.885925%, 88.86261%)" offset="0.242188"/><stop stop-opacity="1" stop-color="rgb(6.761169%, 41.093445%, 89.074707%)" offset="0.246094"/><stop stop-opacity="1" stop-color="rgb(6.919861%, 41.30249%, 89.28833%)" offset="0.25"/><stop stop-opacity="1" stop-color="rgb(7.077026%, 41.51001%, 89.500427%)" offset="0.253906"/><stop stop-opacity="1" stop-color="rgb(7.235718%, 41.719055%, 89.71405%)" offset="0.257812"/><stop stop-opacity="1" stop-color="rgb(7.394409%, 41.926575%, 89.926147%)" offset="0.261719"/><stop stop-opacity="1" stop-color="rgb(7.553101%, 42.13562%, 90.139771%)" offset="0.265625"/><stop stop-opacity="1" stop-color="rgb(7.711792%, 42.344666%, 90.351868%)" offset="0.269531"/><stop stop-opacity="1" stop-color="rgb(7.870483%, 42.553711%, 90.563965%)" offset="0.273438"/><stop stop-opacity="1" stop-color="rgb(8.029175%, 42.76123%, 90.776062%)" offset="0.277344"/><stop stop-opacity="1" stop-color="rgb(8.187866%, 42.970276%, 90.989685%)" offset="0.28125"/><stop stop-opacity="1" stop-color="rgb(8.345032%, 43.177795%, 91.201782%)" offset="0.285156"/><stop stop-opacity="1" stop-color="rgb(8.503723%, 43.386841%, 91.415405%)" offset="0.289062"/><stop stop-opacity="1" stop-color="rgb(8.662415%, 43.595886%, 91.627502%)" offset="0.292969"/><stop stop-opacity="1" stop-color="rgb(8.821106%, 43.804932%, 91.841125%)" offset="0.296875"/><stop stop-opacity="1" stop-color="rgb(8.979797%, 44.012451%, 92.053223%)" offset="0.300781"/><stop stop-opacity="1" stop-color="rgb(9.138489%, 44.221497%, 92.266846%)" offset="0.304688"/><stop stop-opacity="1" stop-color="rgb(9.29718%, 44.429016%, 92.478943%)" offset="0.308594"/><stop stop-opacity="1" stop-color="rgb(9.455872%, 44.638062%, 92.692566%)" offset="0.3125"/><stop stop-opacity="1" stop-color="rgb(9.614563%, 44.847107%, 92.904663%)" offset="0.316406"/><stop stop-opacity="1" stop-color="rgb(9.773254%, 45.056152%, 93.118286%)" offset="0.320313"/><stop stop-opacity="1" stop-color="rgb(9.93042%, 45.263672%, 93.330383%)" offset="0.324219"/><stop stop-opacity="1" stop-color="rgb(10.089111%, 45.472717%, 93.544006%)" offset="0.328125"/><stop stop-opacity="1" stop-color="rgb(10.247803%, 45.680237%, 93.756104%)" offset="0.332031"/><stop stop-opacity="1" stop-color="rgb(10.406494%, 45.889282%, 93.968201%)" offset="0.335938"/><stop stop-opacity="1" stop-color="rgb(10.565186%, 46.096802%, 94.180298%)" offset="0.339844"/><stop stop-opacity="1" stop-color="rgb(10.723877%, 46.305847%, 94.393921%)" offset="0.34375"/><stop stop-opacity="1" stop-color="rgb(10.882568%, 46.514893%, 94.606018%)" offset="0.347656"/><stop stop-opacity="1" stop-color="rgb(11.04126%, 46.723938%, 94.819641%)" offset="0.351563"/><stop stop-opacity="1" stop-color="rgb(11.198425%, 46.931458%, 95.031738%)" offset="0.355469"/><stop stop-opacity="1" stop-color="rgb(11.357117%, 47.140503%, 95.245361%)" offset="0.359375"/><stop stop-opacity="1" stop-color="rgb(11.515808%, 47.348022%, 95.457458%)" offset="0.363281"/><stop stop-opacity="1" stop-color="rgb(11.6745%, 47.557068%, 95.671082%)" offset="0.367188"/><stop stop-opacity="1" stop-color="rgb(11.833191%, 47.766113%, 95.883179%)" offset="0.371094"/><stop stop-opacity="1" stop-color="rgb(11.991882%, 47.975159%, 96.096802%)" offset="0.375"/><stop stop-opacity="1" stop-color="rgb(12.150574%, 48.182678%, 96.308899%)" offset="0.378906"/><stop stop-opacity="1" stop-color="rgb(12.309265%, 48.391724%, 96.522522%)" offset="0.382813"/><stop stop-opacity="1" stop-color="rgb(12.466431%, 48.599243%, 96.734619%)" offset="0.386719"/><stop stop-opacity="1" stop-color="rgb(12.625122%, 48.808289%, 96.948242%)" offset="0.390625"/><stop stop-opacity="1" stop-color="rgb(12.783813%, 49.017334%, 97.160339%)" offset="0.394531"/><stop stop-opacity="1" stop-color="rgb(12.942505%, 49.226379%, 97.372437%)" offset="0.398438"/><stop stop-opacity="1" stop-color="rgb(13.101196%, 49.433899%, 97.584534%)" offset="0.402344"/><stop stop-opacity="1" stop-color="rgb(13.259888%, 49.642944%, 97.798157%)" offset="0.40625"/><stop stop-opacity="1" stop-color="rgb(13.418579%, 49.850464%, 98.010254%)" offset="0.410156"/><stop stop-opacity="1" stop-color="rgb(13.577271%, 50.059509%, 98.223877%)" offset="0.414063"/><stop stop-opacity="1" stop-color="rgb(13.734436%, 50.267029%, 98.435974%)" offset="0.417969"/><stop stop-opacity="1" stop-color="rgb(13.893127%, 50.476074%, 98.649597%)" offset="0.421875"/><stop stop-opacity="1" stop-color="rgb(14.051819%, 50.68512%, 98.861694%)" offset="0.425781"/><stop stop-opacity="1" stop-color="rgb(14.21051%, 50.894165%, 99.075317%)" offset="0.429688"/><stop stop-opacity="1" stop-color="rgb(14.369202%, 51.101685%, 99.287415%)" offset="0.433594"/><stop stop-opacity="1" stop-color="rgb(14.527893%, 51.31073%, 99.501038%)" offset="0.4375"/><stop stop-opacity="1" stop-color="rgb(14.686584%, 51.51825%, 99.713135%)" offset="0.441406"/><stop stop-opacity="1" stop-color="rgb(14.845276%, 51.727295%, 99.926758%)" offset="0.445312"/><stop stop-opacity="1" stop-color="rgb(14.871216%, 51.76239%, 99.963379%)" offset="0.453125"/><stop stop-opacity="1" stop-color="rgb(14.898682%, 51.799011%, 100%)" offset="0.46875"/><stop stop-opacity="1" stop-color="rgb(14.898682%, 51.799011%, 100%)" offset="0.4944"/><stop stop-opacity="1" stop-color="rgb(14.898682%, 51.799011%, 100%)" offset="0.5"/><stop stop-opacity="1" stop-color="rgb(14.898682%, 51.799011%, 100%)" offset="0.5056"/><stop stop-opacity="1" stop-color="rgb(14.898682%, 51.799011%, 100%)" offset="1"/></linearGradient></defs><g fill="#f2f2f2" fill-opacity="1"><g transform="translate(-0.35501, 30.895105)"><g><path d="M 15.65625 0.359375 C 13.75 0.359375 11.96875 0.00390625 10.3125 -0.703125 C 8.664062 -1.421875 7.210938 -2.410156 5.953125 -3.671875 C 4.691406 -4.941406 3.703125 -6.398438 2.984375 -8.046875 C 2.273438 -9.691406 1.921875 -11.46875 1.921875 -13.375 C 1.921875 -15.28125 2.273438 -17.054688 2.984375 -18.703125 C 3.703125 -20.359375 4.691406 -21.816406 5.953125 -23.078125 C 7.210938 -24.335938 8.664062 -25.320312 10.3125 -26.03125 C 11.96875 -26.75 13.75 -27.109375 15.65625 -27.109375 C 18.269531 -27.109375 20.640625 -26.445312 22.765625 -25.125 C 24.890625 -23.800781 26.53125 -22.070312 27.6875 -19.9375 L 23.9375 -17.921875 C 23.164062 -19.410156 22.046875 -20.59375 20.578125 -21.46875 C 19.109375 -22.34375 17.46875 -22.78125 15.65625 -22.78125 C 13.894531 -22.78125 12.300781 -22.363281 10.875 -21.53125 C 9.445312 -20.695312 8.316406 -19.570312 7.484375 -18.15625 C 6.660156 -16.75 6.25 -15.15625 6.25 -13.375 C 6.25 -11.59375 6.660156 -9.992188 7.484375 -8.578125 C 8.316406 -7.171875 9.445312 -6.050781 10.875 -5.21875 C 12.300781 -4.382812 13.894531 -3.96875 15.65625 -3.96875 C 17.46875 -3.96875 19.109375 -4.410156 20.578125 -5.296875 C 22.046875 -6.191406 23.164062 -7.367188 23.9375 -8.828125 L 27.6875 -6.828125 C 26.53125 -4.679688 24.890625 -2.945312 22.765625 -1.625 C 20.640625 -0.300781 18.269531 0.359375 15.65625 0.359375 Z M 15.65625 0.359375 "/></g></g></g><g fill="#f2f2f2" fill-opacity="1"><g transform="translate(27.905401, 30.895105)"><g><path d="M 2.9375 0 L 2.9375 -31.75 L 7.171875 -31.75 L 7.171875 0 Z M 2.9375 0 "/></g></g></g><g fill="#f2f2f2" fill-opacity="1"><g transform="translate(37.315413, 30.895105)"><g/></g></g><g fill="#f2f2f2" fill-opacity="1"><g transform="translate(47.299942, 30.895105)"><g/></g></g><g fill="#f2f2f2" fill-opacity="1"><g transform="translate(57.28447, 30.895105)"><g/></g></g><g fill="#f2f2f2" fill-opacity="1"><g transform="translate(67.275516, 30.895105)"><g><path d="M 16.5 -31.75 L 20.734375 -31.75 L 20.734375 0 L 16.5 0 L 16.5 -1.875 C 15.757812 -1.1875 14.894531 -0.640625 13.90625 -0.234375 C 12.925781 0.160156 11.875 0.359375 10.75 0.359375 C 9.082031 0.359375 7.554688 -0.0546875 6.171875 -0.890625 C 4.796875 -1.722656 3.703125 -2.835938 2.890625 -4.234375 C 2.085938 -5.628906 1.6875 -7.191406 1.6875 -8.921875 C 1.6875 -10.640625 2.085938 -12.195312 2.890625 -13.59375 C 3.703125 -15 4.796875 -16.113281 6.171875 -16.9375 C 7.554688 -17.769531 9.082031 -18.1875 10.75 -18.1875 C 11.875 -18.1875 12.925781 -17.984375 13.90625 -17.578125 C 14.894531 -17.179688 15.757812 -16.644531 16.5 -15.96875 Z M 11.28125 -3.5625 C 12.257812 -3.5625 13.15625 -3.800781 13.96875 -4.28125 C 14.789062 -4.757812 15.4375 -5.40625 15.90625 -6.21875 C 16.382812 -7.039062 16.625 -7.941406 16.625 -8.921875 C 16.625 -9.929688 16.382812 -10.835938 15.90625 -11.640625 C 15.4375 -12.441406 14.789062 -13.078125 13.96875 -13.546875 C 13.15625 -14.023438 12.257812 -14.265625 11.28125 -14.265625 C 10.300781 -14.265625 9.398438 -14.023438 8.578125 -13.546875 C 7.765625 -13.078125 7.117188 -12.441406 6.640625 -11.640625 C 6.171875 -10.835938 5.9375 -9.929688 5.9375 -8.921875 C 5.9375 -7.941406 6.171875 -7.039062 6.640625 -6.21875 C 7.117188 -5.40625 7.765625 -4.757812 8.578125 -4.28125 C 9.398438 -3.800781 10.300781 -3.5625 11.28125 -3.5625 Z M 11.28125 -3.5625 "/></g></g></g><g fill="#2684ff" fill-opacity="1"><g transform="translate(90.241257, 30.895105)"><g><path d="M 20.109375 -26.75 L 24.484375 -26.75 L 24.484375 0 L 20.109375 0 L 20.109375 -11.375 L 7.3125 -11.375 L 7.3125 0 L 2.9375 0 L 2.9375 -26.75 L 7.3125 -26.75 L 7.3125 -15.421875 L 20.109375 -15.421875 Z M 20.109375 -26.75 "/></g></g></g><g fill="#2684ff" fill-opacity="1"><g transform="translate(116.941533, 30.895105)"><g><path d="M 9.9375 0.359375 C 7.59375 0.359375 5.757812 -0.265625 4.4375 -1.515625 C 3.113281 -2.765625 2.453125 -4.457031 2.453125 -6.59375 L 2.453125 -17.828125 L 6.640625 -17.828125 L 6.640625 -7.140625 C 6.640625 -6.035156 6.953125 -5.160156 7.578125 -4.515625 C 8.203125 -3.878906 8.988281 -3.5625 9.9375 -3.5625 C 10.894531 -3.5625 11.6875 -3.878906 12.3125 -4.515625 C 12.9375 -5.160156 13.25 -6.035156 13.25 -7.140625 L 13.25 -17.828125 L 17.4375 -17.828125 L 17.4375 -6.59375 C 17.4375 -4.457031 16.773438 -2.765625 15.453125 -1.515625 C 14.128906 -0.265625 12.289062 0.359375 9.9375 0.359375 Z M 9.9375 0.359375 "/></g></g></g><g fill="#2684ff" fill-opacity="1"><g transform="translate(136.108582, 30.895105)"><g><path d="M 12.9375 -18.1875 C 14.625 -18.1875 16.148438 -17.769531 17.515625 -16.9375 C 18.890625 -16.113281 19.976562 -15 20.78125 -13.59375 C 21.582031 -12.195312 21.984375 -10.640625 21.984375 -8.921875 C 21.984375 -7.191406 21.582031 -5.628906 20.78125 -4.234375 C 19.976562 -2.835938 18.890625 -1.722656 17.515625 -0.890625 C 16.148438 -0.0546875 14.625 0.359375 12.9375 0.359375 C 11.800781 0.359375 10.75 0.160156 9.78125 -0.234375 C 8.820312 -0.640625 7.953125 -1.1875 7.171875 -1.875 L 7.171875 0 L 2.9375 0 L 2.9375 -31.75 L 7.171875 -31.75 L 7.171875 -15.96875 C 7.953125 -16.644531 8.820312 -17.179688 9.78125 -17.578125 C 10.75 -17.984375 11.800781 -18.1875 12.9375 -18.1875 Z M 12.390625 -3.5625 C 13.398438 -3.5625 14.304688 -3.800781 15.109375 -4.28125 C 15.910156 -4.757812 16.550781 -5.40625 17.03125 -6.21875 C 17.507812 -7.039062 17.75 -7.941406 17.75 -8.921875 C 17.75 -9.929688 17.507812 -10.835938 17.03125 -11.640625 C 16.550781 -12.441406 15.910156 -13.078125 15.109375 -13.546875 C 14.304688 -14.023438 13.398438 -14.265625 12.390625 -14.265625 C 11.410156 -14.265625 10.507812 -14.023438 9.6875 -13.546875 C 8.875 -13.078125 8.226562 -12.441406 7.75 -11.640625 C 7.28125 -10.835938 7.046875 -9.929688 7.046875 -8.921875 C 7.046875 -7.941406 7.28125 -7.039062 7.75 -6.21875 C 8.226562 -5.40625 8.875 -4.757812 9.6875 -4.28125 C 10.507812 -3.800781 11.410156 -3.5625 12.390625 -3.5625 Z M 12.390625 -3.5625 "/></g></g></g><g clip-path="url(#a2aee419d6)"><path fill="#2684ff" d="M 61.4375 12.796875 L 51.679688 12.796875 C 51.679688 13.96875 52.140625 15.085938 52.96875 15.914062 C 53.796875 16.742188 54.917969 17.203125 56.085938 17.203125 L 57.882812 17.203125 L 57.882812 18.941406 C 57.882812 21.371094 59.855469 23.34375 62.285156 23.34375 L 62.285156 13.644531 C 62.285156 13.175781 61.90625 12.796875 61.4375 12.796875 Z M 61.4375 12.796875 " fill-opacity="1" fill-rule="nonzero"/></g><g clip-path="url(#3bea4ac514)"><g clip-path="url(#61e51c5247)"><path fill="url(#19b626c670)" d="M 46.847656 17.660156 L 46.847656 28.207031 L 57.457031 28.207031 L 57.457031 17.660156 Z M 46.847656 17.660156 " fill-rule="nonzero"/></g></g><g clip-path="url(#8f3a3ee9fa)"><g clip-path="url(#1d2eb7f20a)"><path fill="url(#610e79e1d4)" d="M 42.015625 22.523438 L 42.015625 33.066406 L 52.625 33.066406 L 52.625 22.523438 Z M 42.015625 22.523438 " fill-rule="nonzero"/></g></g></svg>